<?xml version="1.0" standalone="no"?>
<!DOCTYPE svg PUBLIC "-//W3C//DTD SVG 20010904//EN"
 "http://www.w3.org/TR/2001/REC-SVG-20010904/DTD/svg10.dtd">
<svg version="1.0" xmlns="http://www.w3.org/2000/svg"
 width="1024.000000pt" height="1024.000000pt" viewBox="0 0 1024.000000 1024.000000"
 preserveAspectRatio="xMidYMid meet">
<metadata>
Created by potrace 1.16, written by Peter Selinger 2001-2019
</metadata>
<g transform="translate(0.000000,1024.000000) scale(0.100000,-0.100000)"
fill="#000000" stroke="none">
<path d="M5494 9958 c-5 -13 -8 -26 -9 -30 -1 -17 -18 -19 -67 -8 -49 11 -57
10 -88 -9 l-35 -21 38 0 c59 0 43 -15 -27 -26 -35 -5 -62 -6 -60 -2 8 13 -11
9 -24 -4 -10 -10 -15 -10 -22 2 -8 12 -12 13 -19 2 -7 -11 -9 -11 -14 1 -8 21
2 28 37 24 17 -3 23 -2 14 0 -21 5 -24 19 -5 26 6 3 -1 6 -18 6 -20 0 -26 -2
-17 -8 10 -6 7 -10 -13 -13 -14 -3 -32 0 -38 6 -21 21 -123 52 -182 56 -153
11 -276 -6 -315 -42 -16 -15 -20 -16 -20 -4 0 10 -6 13 -16 9 -8 -3 -13 -12
-10 -19 3 -8 1 -14 -3 -14 -5 0 -12 6 -14 13 -3 7 -6 5 -6 -5 -1 -10 -6 -18
-12 -18 -5 0 -7 4 -4 10 4 6 -2 7 -16 1 -13 -4 -25 -14 -27 -21 -3 -9 1 -11
11 -7 9 3 19 2 22 -3 4 -6 -5 -14 -19 -20 -14 -5 -26 -14 -26 -20 0 -8 -6 -8
-20 0 -11 6 -21 7 -21 3 -1 -4 -2 -15 -3 -23 -2 -26 -51 -35 -126 -22 -39 7
-93 12 -120 12 -44 0 -53 4 -81 35 -47 51 -69 43 -69 -25 0 -16 -6 -31 -12
-33 -10 -4 -10 -6 0 -6 7 -1 10 -6 7 -11 -4 -6 -1 -17 5 -25 10 -12 10 -18 0
-30 -9 -10 -9 -15 -1 -15 6 0 11 5 11 12 0 6 9 3 20 -7 11 -10 20 -29 20 -42
0 -12 6 -23 13 -23 8 0 19 -11 25 -25 6 -14 18 -25 27 -25 8 0 15 -7 15 -15 0
-8 5 -15 12 -15 8 0 9 -3 2 -10 -14 -14 -62 4 -70 25 -3 8 -10 12 -15 9 -5 -3
-9 -1 -9 4 0 6 -13 14 -28 20 -24 8 -28 7 -29 -11 -4 -42 14 -57 70 -57 29 0
58 -5 64 -11 8 -8 17 -8 30 0 21 11 43 -2 43 -25 0 -7 6 -15 13 -17 7 -3 5 -6
-5 -6 -11 -1 -15 -6 -12 -15 3 -8 1 -17 -5 -20 -6 -4 -8 -13 -4 -21 3 -8 1
-15 -5 -15 -5 0 -17 -16 -26 -35 -9 -19 -21 -35 -27 -35 -6 0 -8 -4 -5 -9 3
-5 -1 -11 -9 -15 -8 -3 -15 -10 -15 -17 0 -6 -9 -24 -21 -40 -17 -24 -18 -29
-5 -29 9 0 13 -6 10 -14 -3 -8 -1 -17 5 -21 15 -9 -6 -47 -22 -40 -7 4 -4 0 5
-7 15 -13 14 -15 -16 -26 -30 -11 -45 -30 -60 -76 -5 -13 -2 -17 8 -13 11 4
13 1 9 -11 -5 -14 -2 -14 18 3 42 35 87 56 74 35 -3 -5 -2 -10 4 -10 5 0 11 6
14 13 2 6 8 9 12 5 4 -4 -1 -18 -12 -32 -14 -20 -24 -25 -45 -20 -18 4 -28 1
-28 -6 0 -7 7 -9 16 -6 14 5 15 4 4 -9 -14 -17 -35 -21 -24 -4 4 7 -2 9 -17 7
-14 -2 -25 -11 -27 -22 -3 -11 0 -16 7 -12 7 4 11 -1 11 -13 0 -12 5 -21 11
-21 6 0 8 9 4 20 -5 17 -2 20 19 18 23 -2 48 -28 27 -28 -5 0 -8 -10 -7 -22 1
-15 7 -22 16 -20 9 2 5 -6 -9 -19 -23 -21 -23 -23 -5 -30 17 -6 16 -7 -6 -11
l-25 -4 28 -14 28 -14 -26 -23 c-14 -13 -25 -29 -25 -35 0 -9 3 -9 12 0 16 16
31 15 21 0 -13 -22 -12 -37 3 -31 10 4 12 0 7 -13 -5 -13 -3 -15 7 -9 10 6 12
4 7 -9 -6 -14 -4 -15 14 -5 17 9 20 8 14 -2 -6 -9 -2 -11 13 -7 18 5 19 4 9
-13 -6 -10 -14 -19 -18 -19 -3 0 -6 -7 -6 -15 0 -9 6 -14 13 -11 8 3 10 -3 6
-17 -4 -19 -2 -19 17 6 23 28 45 29 34 1 -4 -11 0 -14 18 -10 13 2 32 7 42 11
10 4 17 3 17 -4 0 -6 5 -10 12 -9 6 2 14 -5 16 -15 5 -24 -18 -78 -29 -71 -5
3 -9 2 -8 -3 4 -22 -2 -43 -11 -38 -5 3 -11 -4 -11 -17 -1 -17 -3 -18 -6 -5
-2 9 -9 17 -14 17 -5 0 -10 19 -10 43 -1 23 -4 32 -6 20 -2 -13 -9 -23 -14
-23 -5 0 -14 -10 -19 -22 -8 -20 -9 -19 -10 12 0 25 -3 31 -9 20 -6 -8 -9 -32
-9 -54 0 -22 -5 -42 -11 -44 -6 -2 -11 -10 -11 -19 0 -24 -25 -9 -28 17 -2 13
-10 29 -17 35 -8 5 -15 21 -17 35 -3 23 -6 21 -25 -20 l-22 -45 6 39 c4 28 3
37 -6 32 -6 -4 -11 -14 -11 -23 0 -9 -3 -13 -7 -10 -3 4 -13 1 -21 -6 -13 -10
-15 -9 -9 7 6 15 5 17 -6 8 -11 -9 -13 -6 -9 20 3 20 1 29 -6 24 -6 -4 -8 2
-4 16 5 23 5 23 -16 4 -24 -21 -28 -16 -12 15 16 28 2 122 -17 115 -11 -5 -13
-1 -7 16 6 21 5 22 -11 8 -16 -14 -17 -13 -11 8 8 24 -3 29 -22 10 -16 -16
-15 1 3 32 21 36 19 53 -5 45 -16 -5 -19 -3 -14 12 4 11 -4 6 -20 -12 l-27
-30 16 33 c9 18 14 39 12 45 -5 13 -37 -54 -37 -77 0 -8 -6 -19 -14 -23 -35
-20 -87 -233 -102 -420 -4 -46 -11 -83 -16 -83 -25 0 17 288 57 399 14 38 25
75 24 82 0 8 -9 -11 -20 -41 -29 -83 -40 -100 -65 -100 -17 0 -36 -16 -65 -55
-23 -31 -44 -53 -47 -51 -3 3 0 11 6 18 8 10 -1 14 -40 15 -46 3 -50 1 -59
-26 -9 -25 -14 -28 -36 -22 -36 9 -39 25 -11 51 19 18 20 22 8 30 -8 5 -29 12
-47 16 -45 8 -73 79 -73 182 l0 75 -21 -27 c-37 -47 -49 -108 -43 -218 6 -125
31 -194 90 -256 l44 -46 -51 -46 c-47 -43 -51 -50 -46 -81 25 -145 26 -132
-11 -175 -33 -38 -34 -38 -18 -7 9 17 20 35 26 38 5 3 10 17 10 29 0 28 -30
126 -39 126 -9 0 -69 -93 -81 -125 -6 -15 -10 -36 -10 -48 0 -16 -9 -26 -30
-34 -16 -6 -33 -20 -36 -30 -16 -52 -48 -85 -49 -50 -1 6 -9 33 -19 58 -10 26
-21 80 -25 120 l-7 74 -17 -55 c-30 -94 -33 -168 -9 -247 27 -88 51 -112 94
-95 18 6 27 7 22 2 -6 -6 -25 -14 -42 -19 -26 -8 -34 -6 -42 7 -20 32 1 -51
23 -91 15 -26 30 -40 49 -44 20 -4 28 -12 29 -27 1 -17 2 -17 6 -3 2 9 9 17
14 17 6 0 8 -4 5 -9 -7 -10 18 -132 35 -170 9 -23 10 -23 30 -6 10 10 25 39
33 63 7 25 15 41 19 36 3 -6 -5 -37 -19 -69 -13 -33 -21 -68 -18 -77 3 -10 3
-18 -1 -18 -14 0 -55 33 -55 45 0 7 -7 18 -15 25 -8 7 -15 24 -16 39 l-1 26
-7 -25 c-4 -14 -3 -28 2 -31 5 -4 6 -16 2 -28 -5 -15 -2 -21 9 -21 9 0 16 -5
16 -10 0 -17 52 -32 75 -22 11 5 42 29 69 53 27 24 44 34 38 24 -5 -11 -32
-38 -59 -60 -86 -72 -77 -69 -112 -39 -17 14 -31 21 -31 16 0 -6 13 -21 30
-35 23 -20 27 -27 16 -36 -10 -8 -20 -6 -42 11 -23 18 -26 18 -14 4 8 -11 32
-27 53 -36 50 -23 96 -12 163 39 55 41 63 65 39 111 -9 18 -18 39 -20 48 -7
35 -47 113 -60 118 -16 7 -10 30 10 38 9 3 12 0 9 -9 -3 -7 8 -42 25 -77 21
-45 38 -67 58 -76 l28 -12 -27 5 c-24 5 -26 3 -20 -14 9 -25 79 -101 93 -101
5 0 7 -4 4 -10 -8 -12 17 -12 68 -1 20 5 37 7 37 4 0 -9 -71 -33 -99 -33 -31
0 -49 -14 -32 -24 5 -4 12 -2 16 4 14 22 26 8 25 -27 -3 -61 -1 -71 16 -77 24
-9 64 20 64 47 0 21 2 20 25 -8 29 -35 50 -98 35 -103 -15 -5 -12 -40 6 -67
11 -18 13 -25 4 -25 -8 0 -10 -8 -7 -22 15 -61 19 -102 10 -93 -14 14 -33 96
-26 109 3 6 -2 3 -12 -6 -12 -11 -20 -34 -21 -62 -3 -51 -23 -131 -30 -123 -3
3 0 33 7 66 11 60 6 99 -7 47 -3 -14 -10 -26 -15 -26 -9 0 11 51 24 61 11 8
-5 71 -19 76 -13 4 -34 -40 -34 -70 0 -17 -2 -19 -10 -7 -7 12 -13 11 -35 -10
-20 -19 -24 -30 -20 -52 5 -21 3 -28 -8 -28 -10 0 -14 7 -10 23 5 21 4 21 -16
-3 -11 -14 -21 -36 -21 -49 0 -13 -8 -31 -19 -40 -10 -9 -22 -27 -26 -41 -4
-14 -18 -41 -31 -61 -13 -20 -23 -45 -22 -55 0 -11 -4 -30 -10 -44 -12 -29
-82 -108 -82 -92 0 5 7 15 15 22 17 14 21 60 5 60 -5 0 -10 -8 -11 -17 -1 -12
-4 -10 -9 7 -7 22 -8 21 -9 -12 -1 -21 -11 -63 -23 -95 l-21 -58 -14 33 c-16
40 -24 40 -44 -1 -9 -17 -33 -44 -54 -58 -21 -15 -42 -36 -46 -48 -9 -22 -24
-27 -34 -11 -12 20 -25 10 -25 -19 0 -39 -9 -61 -26 -61 -8 0 -14 -8 -14 -19
0 -13 -11 -20 -42 -27 -30 -6 -47 -17 -57 -36 -15 -26 -14 -28 9 -50 l25 -23
-28 -3 c-29 -4 -37 -29 -12 -38 14 -6 13 -8 -2 -19 -11 -9 -24 -10 -34 -4 -17
9 -64 -19 -82 -48 -6 -10 -17 -6 -42 19 -19 17 -31 36 -28 41 3 6 2 7 -4 4
-13 -8 -126 108 -155 159 -41 73 -82 126 -160 208 -42 45 -97 109 -122 143
-25 34 -54 67 -66 73 -11 6 -20 19 -20 30 0 24 -21 70 -32 70 -4 0 -8 -10 -8
-22 0 -20 -3 -18 -30 12 -21 23 -30 43 -28 60 3 26 -29 70 -52 70 -6 0 -23 9
-37 20 -35 27 -51 25 -56 -7 l-4 -28 -2 28 c0 16 8 36 20 48 25 25 19 73 -9
67 -9 -2 -16 -9 -15 -14 1 -6 -4 -11 -10 -11 -8 0 -11 14 -9 41 2 30 0 37 -7
26 -5 -8 -13 -11 -17 -7 -4 3 -1 13 6 22 8 10 11 33 8 65 -3 28 -1 50 4 50 4
0 14 11 20 25 15 34 71 65 116 65 34 1 35 2 15 13 -19 10 -20 14 -8 30 10 13
14 15 18 5 2 -7 8 -9 13 -5 4 4 3 17 -4 27 -7 11 -12 53 -12 95 l0 76 45 48
c25 26 45 51 45 55 0 3 -18 6 -39 6 -38 0 -71 19 -71 41 0 21 21 49 38 50 10
0 12 3 5 6 -9 3 -11 17 -7 44 5 29 3 39 -7 39 -33 0 -78 -42 -119 -111 -27
-45 -45 -68 -48 -59 -3 8 -22 36 -44 62 -33 39 -46 48 -84 54 -55 8 -69 -2
-26 -18 18 -7 32 -16 32 -21 0 -4 18 -27 40 -49 22 -23 40 -46 40 -51 0 -5
-17 10 -38 33 l-37 42 -48 -32 c-51 -34 -78 -36 -30 -2 40 28 40 60 2 74 l-30
10 34 24 c20 13 37 29 40 36 2 8 28 -10 67 -47 34 -33 69 -66 77 -74 19 -18
29 -6 74 81 16 31 36 61 44 66 14 7 14 10 2 21 -21 17 -64 -3 -108 -52 l-36
-40 -7 71 c-4 39 -12 74 -17 78 -6 3 -7 18 -4 34 4 19 -1 39 -17 65 -12 22
-16 35 -9 31 7 -5 21 -26 31 -48 14 -32 19 -36 29 -24 10 12 7 22 -13 54 -14
22 -30 43 -35 47 -7 4 -7 12 1 24 8 14 7 25 -5 51 -9 18 -14 36 -11 41 3 5 -7
34 -22 64 -27 52 -27 57 -14 88 30 65 11 437 -27 535 -8 21 -9 21 -22 -15 -7
-21 -31 -74 -52 -118 -21 -44 -39 -87 -41 -95 -2 -8 -9 -21 -16 -28 -16 -18
-15 -29 3 -36 9 -3 19 -15 23 -27 7 -18 15 -6 52 73 39 81 44 101 43 158 0 53
1 60 9 35 21 -72 -12 -165 -124 -344 -98 -154 -158 -217 -158 -162 0 11 -5 23
-12 27 -8 5 -9 2 -5 -9 11 -28 -20 -20 -60 17 -104 92 -191 121 -338 113 -55
-3 -129 -12 -165 -20 -70 -16 -179 -54 -195 -68 -6 -6 -15 3 -25 23 -9 18 -22
32 -28 31 -7 -2 -12 4 -12 12 0 8 -4 15 -9 15 -14 0 -1 -37 20 -56 20 -18 25
-34 10 -34 -5 0 -12 9 -16 19 -3 11 -25 28 -48 39 -24 11 -49 27 -56 36 -8 9
-17 16 -21 16 -5 0 -39 18 -78 40 -38 22 -74 40 -81 40 -13 0 13 -42 46 -73
30 -28 153 -106 153 -96 0 5 -11 16 -25 25 -14 9 -25 21 -25 26 0 6 15 -1 32
-14 18 -13 41 -27 50 -31 21 -8 52 -53 44 -65 -3 -6 -21 -4 -43 3 -30 11 -39
11 -41 1 -3 -12 -161 132 -349 320 l-93 92 0 -118 0 -118 42 -62 c22 -34 65
-88 93 -119 29 -31 60 -70 69 -88 21 -42 54 -64 83 -57 30 8 30 -11 -1 -103
-39 -115 -60 -277 -53 -412 7 -134 25 -197 71 -246 l33 -34 -21 -33 c-31 -50
-98 -123 -155 -168 -28 -22 -51 -48 -50 -58 0 -14 2 -14 9 3 5 11 9 16 9 11 1
-5 9 -2 19 7 12 11 36 16 79 15 35 0 60 -4 58 -8 -3 -4 -33 -18 -67 -30 -35
-13 -94 -39 -132 -57 -53 -25 -72 -30 -78 -21 -4 7 -8 -20 -8 -61 l0 -74 63 7
c83 10 249 46 264 58 25 20 106 -7 205 -65 31 -19 54 -26 68 -22 18 6 20 2 21
-42 1 -26 3 -40 6 -30 3 12 16 18 46 19 87 4 128 12 162 33 11 6 35 17 53 23
31 11 32 10 32 -18 0 -29 -2 -32 -114 -119 -67 -53 -76 -77 -46 -126 34 -56
53 -63 178 -68 62 -2 115 -6 117 -9 3 -3 -1 -55 -9 -117 -13 -93 -21 -123 -51
-179 -20 -37 -41 -71 -47 -77 -8 -7 -8 -6 -3 4 5 9 4 12 -3 7 -6 -4 -9 -13 -5
-21 10 -27 -104 -126 -200 -172 -48 -24 -90 -43 -92 -43 -3 0 -6 24 -7 53 l-1
52 -6 -54 -6 -54 -151 -76 c-186 -94 -238 -132 -309 -226 -31 -41 -65 -80 -75
-85 -13 -7 -20 -21 -20 -40 0 -17 -4 -30 -10 -30 -16 0 -11 -30 9 -56 l19 -24
17 28 c10 15 25 35 34 44 9 9 29 35 46 58 16 22 52 55 80 72 27 18 68 48 91
68 22 21 61 49 86 64 70 41 229 106 242 99 6 -3 8 -3 4 1 -9 11 41 52 144 120
59 38 108 81 150 131 35 40 65 72 66 70 9 -8 -40 -97 -73 -134 -38 -42 -193
-144 -247 -163 -15 -6 -26 -14 -23 -18 3 -4 -12 -20 -33 -36 -162 -122 -249
-260 -273 -432 -10 -68 -8 -89 12 -185 17 -77 27 -106 36 -103 7 3 13 2 13 -2
0 -4 9 -8 20 -8 15 0 20 7 21 26 l0 25 11 -23 c13 -26 28 -29 28 -5 0 15 2 14
15 -3 19 -25 19 -11 0 26 -21 40 -10 38 36 -7 22 -21 42 -38 46 -39 5 0 21 -6
37 -13 21 -8 32 -9 42 0 12 10 8 18 -20 50 -50 55 -63 84 -76 178 -30 201 28
355 168 447 82 54 195 147 236 195 97 113 171 335 183 545 l4 71 33 -2 c19 -1
38 -5 44 -9 14 -9 21 4 20 40 -1 16 10 57 23 92 l24 62 65 0 c36 0 81 3 100 5
19 3 42 1 50 -4 12 -8 12 -12 -3 -29 -9 -10 -17 -25 -17 -33 0 -20 47 -63 52
-47 3 9 16 8 50 -5 69 -27 81 -45 84 -135 7 -160 12 -228 20 -246 4 -10 2 -21
-3 -25 -6 -3 -12 -34 -15 -68 -2 -34 -1 -60 4 -57 18 11 6 -20 -27 -72 -20
-31 -41 -78 -47 -105 l-12 -50 37 -37 c20 -21 37 -44 38 -52 0 -10 4 -8 9 5 7
15 9 10 9 -23 1 -36 -3 -44 -23 -52 -45 -17 -57 -63 -31 -113 12 -24 13 -31 1
-50 -10 -15 -18 -80 -25 -197 -6 -96 -15 -189 -20 -207 -6 -22 -6 -33 2 -36
10 -3 6 -23 -39 -184 -10 -35 -22 -54 -35 -58 -17 -6 -18 -9 -7 -22 24 -29 18
-43 -20 -44 l-37 -2 35 -6 34 -6 -43 -35 c-24 -18 -39 -36 -33 -38 7 -2 24 6
39 17 18 15 30 18 37 11 5 -5 19 -10 31 -10 12 0 26 -5 33 -12 7 -7 12 -8 12
-2 0 5 4 3 9 -5 8 -12 13 -12 24 -3 11 9 22 10 42 2 20 -7 31 -7 41 1 9 8 14
8 14 1 0 -17 40 -9 41 8 0 10 3 9 8 -4 4 -12 10 -15 14 -9 3 5 30 9 58 7 47
-3 50 -2 32 11 -37 26 -67 241 -78 557 -3 86 -10 180 -17 210 -6 29 -10 83 -9
120 2 69 -10 108 -33 108 -8 0 -13 15 -14 41 -2 33 3 45 23 61 57 44 68 125
29 201 -8 15 -12 32 -9 37 3 6 1 10 -5 10 -6 0 -8 5 -5 10 4 6 2 16 -3 23 -6
7 -13 30 -16 52 -7 54 5 296 15 289 4 -2 6 -12 3 -22 -5 -13 -4 -14 4 -3 6 9
12 10 16 2 4 -6 20 -8 36 -4 28 5 30 3 30 -23 0 -20 3 -25 9 -16 7 11 9 11 14
-1 3 -8 34 -38 69 -67 35 -28 70 -64 79 -78 8 -15 56 -58 105 -97 49 -38 123
-106 163 -150 41 -44 87 -93 103 -108 15 -15 28 -35 28 -44 0 -14 -2 -14 -16
3 -14 18 -15 17 -9 -17 4 -26 1 -40 -10 -49 -8 -7 -15 -17 -15 -22 0 -5 -7
-16 -15 -25 -8 -8 -13 -19 -10 -24 4 -5 1 -9 -4 -9 -6 0 -11 -7 -11 -15 0 -8
4 -15 9 -15 6 0 8 -10 6 -22 -8 -37 4 -60 26 -53 31 10 49 -10 35 -40 -6 -14
-16 -25 -23 -25 -6 0 -15 -4 -18 -10 -4 -7 2 -7 19 -1 19 8 26 6 30 -5 5 -12
12 -11 39 10 38 29 56 34 37 11 -7 -8 -18 -15 -25 -15 -7 0 -18 -6 -25 -14 -6
-8 -17 -13 -24 -10 -14 5 -46 -36 -46 -59 0 -8 11 -22 25 -31 14 -9 32 -33 40
-53 17 -39 42 -63 61 -56 6 2 32 -12 58 -32 65 -50 91 -58 160 -50 52 6 61 4
82 -16 35 -33 145 -34 191 -1 22 15 38 20 48 15 8 -5 64 -57 124 -116 87 -85
115 -107 138 -107 44 0 55 12 48 51 -5 28 -2 38 15 54 12 11 24 19 26 18 12
-8 24 -1 24 16 0 10 -58 83 -130 162 -71 79 -128 150 -125 156 2 7 -1 12 -8
10 -7 -1 -13 13 -15 37 -3 34 1 42 32 68 20 16 48 51 63 76 15 26 46 70 70 98
24 28 43 54 43 58 0 4 7 14 15 22 13 13 18 13 44 -1 41 -21 84 -19 112 5 13
10 19 19 13 20 -5 0 -16 -6 -24 -12 -8 -7 2 5 21 27 19 22 45 57 58 78 23 37
89 75 119 69 29 -7 45 20 72 125 8 31 19 47 40 58 17 9 30 14 30 11 0 -2 -16
-28 -35 -58 -45 -67 -50 -88 -35 -146 19 -75 24 -132 11 -132 -6 0 -11 6 -12
13 0 6 -5 -1 -10 -18 -11 -36 -2 -104 16 -122 19 -19 23 -16 28 15 4 26 4 25
6 -5 0 -17 5 -34 10 -37 5 -4 12 -41 16 -84 4 -42 9 -85 12 -96 3 -11 1 -16
-5 -12 -5 3 -13 25 -16 48 -4 24 -10 65 -14 92 -4 27 -13 51 -19 54 -7 2 -13
-2 -13 -10 0 -7 -3 -24 -7 -37 -4 -17 -3 -22 5 -17 17 10 15 -45 -1 -69 -16
-21 -37 -12 -37 16 0 30 -30 36 -52 10 -23 -29 -25 -106 -3 -115 21 -8 19 -26
-4 -26 -29 0 -44 -83 -19 -108 8 -8 8 -15 -1 -26 -6 -7 -11 -18 -10 -22 1 -5
1 -18 0 -29 -2 -19 -3 -18 -11 3 -5 12 -14 22 -20 22 -5 0 -10 7 -10 15 0 8
-4 15 -10 15 -5 0 -10 -6 -10 -13 0 -8 -9 -22 -20 -32 -11 -10 -20 -23 -20
-30 0 -7 -9 -20 -20 -30 -22 -20 -23 -56 -4 -62 18 -6 48 28 33 37 -6 4 -8 13
-5 19 14 22 22 10 23 -33 1 -38 -1 -43 -16 -39 -19 5 -131 -53 -131 -67 0 -4
-9 -6 -20 -3 -16 4 -19 2 -14 -13 5 -18 5 -18 -6 -1 -6 9 -16 15 -21 11 -14
-9 9 -34 32 -34 11 0 19 -4 19 -10 0 -5 -7 -10 -15 -10 -9 0 -38 -20 -65 -46
-28 -26 -51 -41 -55 -35 -10 18 -25 12 -25 -9 0 -11 6 -20 13 -20 6 -1 1 -7
-13 -15 -30 -17 -22 -19 17 -4 l28 10 -25 -27 c-14 -15 -49 -42 -79 -61 -48
-31 -53 -38 -48 -63 5 -25 4 -27 -16 -22 -12 2 -27 9 -33 13 -17 13 -25 -2
-12 -20 10 -12 8 -12 -8 1 -25 22 -44 23 -44 4 0 -33 -40 -104 -69 -122 -52
-33 -191 -164 -207 -196 l-16 -31 29 7 c18 4 63 43 125 109 62 65 97 96 98 84
0 -9 -10 -25 -21 -35 -46 -37 -119 -125 -119 -142 0 -3 15 -5 33 -3 l32 3 -35
-11 c-19 -6 -41 -16 -48 -21 -9 -8 -11 -7 -5 7 5 15 3 17 -13 11 -10 -5 -27
-11 -36 -13 -16 -5 -22 -16 -19 -35 0 -4 -8 -12 -19 -18 -11 -6 -20 -16 -20
-22 0 -7 5 -6 15 2 12 10 15 10 15 -4 0 -10 -8 -16 -23 -16 -17 0 -29 -10 -43
-37 -10 -20 -34 -59 -51 -86 -18 -27 -33 -55 -33 -63 0 -8 -7 -14 -15 -14 -8
0 -15 7 -15 15 0 16 -25 21 -35 6 -3 -5 4 -12 15 -16 11 -3 20 -11 20 -17 0
-11 77 -6 145 8 23 5 27 4 19 -5 -15 -17 -189 -52 -249 -50 -79 1 -95 0 -95
-10 0 -5 6 -9 13 -8 33 1 47 -4 47 -19 0 -9 8 -26 18 -39 18 -22 19 -22 30 -4
7 11 18 16 27 13 11 -5 13 -10 5 -19 -6 -7 -9 -23 -8 -36 2 -18 -2 -23 -21
-24 -13 0 -26 -6 -29 -14 -3 -10 1 -12 17 -8 11 3 21 1 21 -3 0 -21 -14 -40
-29 -40 -14 0 -14 2 -1 10 8 5 11 12 7 16 -8 9 -40 -22 -50 -49 -4 -10 -11
-16 -16 -13 -4 3 -8 -12 -8 -33 0 -29 5 -40 21 -48 11 -5 16 -8 9 -6 -7 1 -15
-3 -19 -9 -4 -6 -3 -8 4 -4 6 3 14 1 18 -5 5 -8 -1 -10 -20 -7 -14 3 -30 0
-33 -6 -4 -6 -9 -1 -13 12 -6 28 -25 30 -25 3 -1 -10 -7 -27 -15 -37 -9 -11
-10 -15 -2 -10 19 11 14 -11 -6 -26 -30 -22 -61 -69 -56 -83 10 -24 37 -26 92
-6 l52 19 -13 -24 c-15 -29 -75 -74 -98 -74 -14 0 -107 -36 -118 -46 -2 -2 2
-10 8 -18 9 -11 9 -16 0 -22 -8 -5 -9 -3 -4 6 6 10 4 12 -9 7 -9 -4 -14 -3
-11 2 3 5 1 12 -5 16 -11 7 -13 -25 -2 -41 4 -6 16 -14 26 -18 18 -6 16 -10
-15 -42 -24 -24 -33 -43 -32 -62 l2 -27 -7 25 c-5 14 -17 26 -27 28 -19 3 -19
2 -1 -12 10 -8 16 -22 13 -30 -3 -8 2 -16 14 -19 31 -8 29 -24 -46 -312 -38
-144 -32 -194 32 -282 44 -61 59 -73 139 -114 83 -43 91 -50 116 -100 15 -30
32 -69 39 -86 15 -42 65 -73 115 -73 22 0 70 11 108 25 83 29 87 27 117 -57
12 -32 35 -75 51 -95 33 -42 45 -81 55 -183 8 -73 8 -74 14 -30 4 25 4 5 2
-44 -3 -49 -10 -101 -16 -115 -13 -33 -14 -37 -16 -61 0 -11 -7 -20 -13 -21
-7 0 -32 -23 -55 -50 -33 -38 -42 -45 -40 -28 1 12 -4 24 -10 26 -15 5 -16
-30 -4 -62 11 -26 -5 -55 -29 -55 -11 0 -20 -4 -20 -10 0 -5 4 -10 9 -10 17 0
21 -32 6 -53 -24 -34 -17 -41 10 -10 13 15 25 22 25 16 0 -7 -4 -13 -10 -13
-5 0 -10 -6 -10 -13 0 -7 -8 -24 -17 -37 l-17 -24 -7 24 -7 25 -7 -22 c-4 -13
-14 -23 -22 -23 -8 0 -21 -7 -29 -15 -14 -13 -13 -16 7 -23 14 -6 18 -11 11
-16 -6 -4 -9 -13 -5 -21 4 -11 -3 -15 -29 -15 -19 0 -42 -6 -51 -12 -19 -14
-31 -58 -16 -58 5 0 9 -9 9 -20 0 -18 -3 -19 -20 -10 -14 7 -20 7 -20 0 0 -5
6 -10 13 -10 6 0 -5 -16 -26 -35 l-38 -35 33 5 33 5 -29 -10 c-16 -5 -33 -7
-38 -4 -5 3 -20 -1 -33 -10 -36 -24 -38 -20 -10 21 14 21 25 41 25 44 0 7 -48
5 -54 -2 -1 -2 -12 -18 -24 -35 -12 -18 -33 -34 -46 -38 -13 -3 -26 -15 -29
-25 -4 -18 -11 -19 -68 -14 -98 9 -112 7 -136 -21 -26 -31 -33 -32 -33 -7 0
27 -17 36 -37 19 -12 -9 -15 -9 -9 -1 5 9 2 11 -9 7 -12 -5 -13 -9 -4 -20 9
-11 9 -17 0 -28 -6 -7 -9 -20 -5 -29 3 -8 1 -18 -5 -22 -7 -3 -8 0 -5 9 12 32
-4 14 -43 -46 -22 -35 -45 -76 -51 -93 l-10 -30 -1 28 c-1 15 8 46 20 68 11
23 18 43 15 47 -16 16 -88 -85 -107 -150 -17 -61 15 -177 39 -140 8 11 10 11
15 -1 4 -10 28 -17 74 -22 37 -4 75 -11 84 -15 8 -5 51 -9 95 -9 107 1 140 1
279 -1 153 -1 331 18 440 46 108 28 232 43 372 44 186 1 362 13 390 28 10 6
32 34 47 62 25 46 29 64 31 154 1 55 5 117 9 136 6 30 2 42 -28 85 -40 56 -43
70 -20 96 19 21 32 109 16 109 -5 0 -13 24 -17 53 -3 28 -9 60 -11 69 -4 13 3
21 21 28 50 19 27 48 -69 85 l-38 15 5 107 c7 131 9 147 36 218 12 31 21 62
21 70 0 8 9 24 20 35 24 24 25 43 5 60 -18 15 -20 41 -4 57 8 8 8 20 -1 45
-10 28 -9 40 10 88 19 46 23 80 27 206 4 130 1 162 -17 235 -12 46 -28 94 -36
106 -7 12 -11 29 -7 38 7 20 67 47 140 64 l53 13 26 86 c14 48 29 96 33 107
13 34 21 -180 12 -345 -6 -113 -5 -163 4 -185 7 -17 50 -63 96 -104 46 -41 92
-83 102 -94 20 -22 22 -69 6 -132 -14 -57 -3 -92 57 -174 25 -35 53 -86 61
-114 12 -42 31 -68 99 -137 50 -52 91 -104 104 -133 23 -53 40 -61 40 -19 0
37 17 60 120 167 94 97 109 120 134 207 9 32 29 73 45 90 15 18 30 43 34 56 5
22 -7 137 -19 175 -4 13 3 21 29 32 19 8 41 24 49 37 9 13 41 50 72 83 30 33
54 65 51 72 -2 6 -9 96 -15 200 -6 103 -15 238 -20 299 -6 60 -10 151 -10 202
l0 92 27 0 c18 0 38 -13 65 -40 32 -34 38 -48 38 -83 0 -51 26 -103 59 -120
33 -16 112 -132 167 -246 41 -84 45 -99 40 -141 -5 -37 -3 -50 10 -61 20 -17
94 -129 94 -143 0 -6 27 -21 59 -32 l59 -22 7 43 c5 36 1 53 -19 92 -15 26
-26 54 -26 61 0 7 -7 15 -15 18 -10 4 -13 13 -10 24 3 10 -8 45 -26 80 -36 71
-32 80 37 80 39 0 43 -3 64 -42 52 -101 123 -139 273 -146 l97 -4 0 -50 c0
-43 4 -54 30 -76 24 -21 30 -34 30 -67 l0 -40 61 -2 c58 -1 64 -3 108 -46 50
-49 86 -71 100 -62 5 3 17 -17 26 -45 9 -27 23 -54 31 -58 8 -4 23 -30 33 -58
17 -44 22 -49 52 -52 19 -2 41 -10 49 -17 8 -7 39 -22 68 -33 29 -12 77 -38
105 -60 29 -21 88 -61 131 -88 84 -52 160 -122 206 -189 21 -32 26 -48 22 -83
-4 -41 -2 -45 45 -90 50 -48 117 -167 105 -186 -3 -6 -7 -6 -9 1 -7 20 -41 1
-46 -25 -6 -28 43 -188 69 -230 8 -12 23 -22 34 -22 10 0 21 -3 23 -8 3 -4 -1
-43 -9 -87 -8 -44 -12 -88 -10 -98 2 -9 0 -15 -5 -11 -20 12 -7 -36 14 -53 30
-24 25 -57 -9 -52 -7 1 -59 -55 -92 -96 -13 -17 -22 -41 -21 -55 3 -63 -2 -91
-17 -97 -10 -4 -22 1 -29 11 -9 12 -15 14 -20 6 -7 -12 -67 -10 -445 12 -102
6 -192 10 -200 10 -8 0 -62 4 -120 9 -58 4 -192 11 -299 14 -147 5 -198 10
-208 21 -9 9 -39 15 -81 16 -154 4 -323 7 -594 10 l-288 4 0 -59 c0 -50 2 -58
16 -53 9 4 49 0 88 -8 39 -8 159 -18 266 -21 182 -5 470 -20 585 -30 28 -2
104 -9 170 -15 66 -5 271 -17 455 -25 184 -9 336 -19 338 -23 1 -5 17 -6 35
-5 35 4 259 -12 319 -23 38 -6 58 -32 36 -45 -15 -10 -13 -11 37 -29 43 -15
223 -22 595 -22 137 0 169 1 225 7 78 9 96 10 158 2 48 -6 64 -4 98 14 l42 21
-6 51 c-9 87 -28 161 -37 146 -6 -9 -10 -6 -15 12 -3 14 -5 29 -4 35 4 23 -3
34 -22 34 -20 0 -21 -4 -15 -54 13 -117 -45 -143 -97 -43 -14 27 -14 26 -20
-31 -8 -75 -13 -87 -36 -89 -20 -2 -19 -2 -63 175 -6 23 -15 45 -21 49 -6 4
-8 0 -4 -10 3 -8 8 -33 11 -54 4 -25 0 -19 -10 20 -9 31 -20 57 -24 57 -11 0
-21 -48 -30 -140 -4 -41 -8 -64 -9 -50 -2 38 -15 53 -39 46 -17 -6 -23 -2 -28
18 -3 14 -10 23 -15 20 -5 -3 -9 2 -9 11 0 8 -7 18 -16 22 -10 3 -12 8 -5 12
7 5 5 16 -5 35 -12 25 -12 31 0 45 19 22 32 66 16 56 -9 -6 -9 -2 0 15 7 14 8
25 3 29 -13 8 -38 55 -25 47 5 -3 18 4 28 15 18 20 18 21 0 35 -20 14 -20 14
24 27 18 5 50 -10 50 -23 0 -5 -11 -12 -25 -16 -20 -5 -24 -11 -19 -26 3 -10
0 -25 -6 -33 -10 -13 -8 -15 17 -15 37 0 46 9 30 28 -9 13 -9 14 1 8 7 -4 12
-1 12 8 0 9 5 16 11 16 5 0 7 4 4 10 -8 13 11 13 38 -1 35 -19 77 -56 70 -63
-4 -3 -1 -6 5 -6 7 0 12 -9 12 -20 0 -13 5 -18 15 -14 11 5 13 2 9 -9 -3 -9
-1 -24 5 -34 6 -11 11 -13 11 -5 0 8 5 10 13 6 9 -6 9 -5 0 8 -7 8 -10 18 -6
21 3 4 6 20 5 37 0 24 4 31 23 36 40 10 38 32 -5 54 -52 26 -66 52 -49 92 12
29 11 33 -17 56 -16 13 -23 21 -16 17 7 -3 3 10 -8 31 -17 28 -18 39 -9 48 9
8 10 8 5 -1 -3 -6 -2 -14 4 -18 5 -3 10 0 10 7 1 8 6 6 15 -6 8 -11 15 -15 15
-8 0 7 -9 17 -20 24 -11 7 -20 23 -20 35 0 18 -23 53 -35 53 -6 0 8 -40 16
-46 11 -7 12 -34 1 -34 -5 0 -20 23 -35 52 -28 54 -28 52 14 103 23 28 39 138
23 160 -7 9 -15 33 -19 54 -6 39 -64 146 -65 121 -1 -11 -4 -10 -16 5 -15 18
-16 12 -10 -80 6 -112 -6 -94 -25 37 -7 48 -16 79 -25 82 -9 3 -14 -1 -14 -12
0 -9 -9 -28 -20 -42 -16 -21 -20 -22 -20 -7 0 10 7 29 16 42 15 23 14 27 -22
92 -39 70 -49 124 -30 170 6 16 4 26 -8 38 -9 9 -16 25 -16 36 0 11 -5 17 -10
14 -6 -3 -10 1 -10 10 0 9 5 13 10 10 11 -7 14 8 4 18 -17 17 -43 -17 -54 -67
-12 -56 -1 -216 20 -285 13 -45 7 -49 -24 -18 -16 17 -29 45 -37 88 -8 41 -37
113 -81 199 l-69 135 11 67 c5 36 15 79 20 93 14 38 2 129 -15 115 -10 -8 -15
-6 -20 8 -11 36 -8 148 5 171 7 15 8 21 1 17 -14 -9 -14 17 -1 30 8 8 6 15 -5
24 -8 7 -15 19 -15 27 0 8 -4 11 -10 8 -13 -8 -13 8 1 22 7 7 2 17 -19 32 -17
11 -32 21 -35 21 -3 0 -9 -15 -12 -32 -14 -67 -70 -99 -125 -73 l-35 16 38 -5
c47 -6 82 6 97 35 14 25 6 78 -16 105 -14 18 -14 16 -8 -24 5 -34 2 -48 -12
-63 -9 -10 -22 -19 -28 -19 -6 0 -5 5 2 12 19 19 14 73 -13 134 -29 66 -43 68
-21 3 19 -53 21 -120 4 -137 -14 -14 -93 -15 -123 -2 -14 6 -2 9 41 9 74 1 88
13 78 68 -12 69 -35 107 -89 153 -29 25 -49 47 -43 49 7 2 29 -15 50 -37 37
-40 55 -48 21 -9 -13 15 -15 21 -5 24 14 5 31 34 42 74 7 22 5 27 -6 22 -12
-4 -12 0 -4 21 10 27 10 27 -28 22 -20 -3 -31 -2 -24 0 22 10 2 24 -33 24 -21
0 -35 -6 -39 -16 -8 -21 -8 -34 2 -33 4 1 28 1 54 0 38 -1 46 -4 42 -16 -4
-10 -20 -15 -45 -15 -28 0 -39 -4 -39 -15 0 -8 9 -15 21 -15 11 0 17 -5 14
-10 -4 -6 -10 -8 -14 -6 -4 3 -12 2 -18 -2 -14 -9 -53 -87 -53 -107 0 -8 -6
-15 -14 -15 -11 0 -15 -16 -14 -73 0 -60 -13 -127 -24 -127 -2 0 -1 48 3 107
4 86 2 120 -13 167 -9 33 -20 80 -23 105 -4 37 2 26 27 -49 17 -52 33 -101 35
-109 2 -8 5 -12 8 -10 2 2 -1 26 -7 53 -5 26 -7 73 -3 103 6 48 12 61 52 99
25 24 49 42 53 39 4 -3 3 6 -3 20 -12 26 -33 33 -39 14 -2 -7 -15 -4 -35 7
-34 20 -60 11 -31 -10 10 -7 15 -16 11 -19 -3 -4 8 -7 25 -7 18 0 32 -3 32 -8
0 -4 -26 -7 -57 -7 -57 0 -58 0 -70 -35 l-12 -35 -1 30 c-1 17 -6 39 -11 50
-7 16 -8 13 -5 -12 2 -18 1 -33 -3 -33 -4 0 -8 -16 -9 -36 -2 -53 -19 -69
-104 -94 -22 -7 -28 -5 -28 6 0 8 10 14 24 14 14 0 37 5 53 11 22 8 25 12 13
20 -12 8 -11 9 5 7 19 -3 20 2 16 67 -1 39 -4 71 -6 73 -9 10 -40 -17 -61 -55
-24 -40 -28 -42 -39 -26 -7 10 -18 35 -26 56 -16 45 -6 67 34 78 22 6 27 4 27
-12 0 -10 -4 -19 -10 -19 -5 0 -9 -12 -9 -27 1 -21 2 -23 6 -8 7 28 22 44 65
71 52 33 76 31 85 -7 l8 -30 23 20 c13 11 23 23 22 28 -4 20 37 117 61 146
l26 31 81 -47 c45 -26 86 -47 91 -47 5 0 22 -5 38 -12 15 -6 30 -12 33 -12 3
-1 21 -13 41 -29 20 -15 42 -27 50 -27 8 0 32 -9 54 -20 46 -23 49 -24 38 -7
-4 6 5 4 20 -6 15 -10 33 -17 40 -15 6 1 22 -3 35 -10 12 -7 22 -10 22 -6 0 3
11 -1 25 -10 13 -9 31 -16 40 -16 18 0 93 -36 115 -56 9 -7 30 -15 48 -19 86
-15 141 -46 199 -111 31 -35 80 -77 107 -93 28 -16 101 -72 161 -125 111 -97
174 -131 198 -107 15 15 31 14 75 -4 26 -11 33 -18 23 -24 -19 -12 2 -17 78
-20 43 -2 61 1 56 8 -3 6 1 11 10 11 34 0 -7 42 -103 105 -54 35 -126 93 -161
129 -35 37 -65 66 -67 66 -6 0 18 -41 34 -58 6 -7 16 -22 22 -32 5 -10 31 -32
57 -50 30 -20 39 -29 23 -25 -39 12 -79 44 -96 77 -11 22 -19 27 -27 19 -17
-17 -47 17 -47 55 0 36 -17 55 -31 33 -4 -7 -9 -11 -11 -9 -18 28 -27 51 -19
45 6 -3 11 -2 11 4 0 12 -20 25 -39 26 -7 0 -20 10 -28 22 -28 42 9 27 57 -23
25 -25 54 -50 65 -56 11 -6 -6 16 -37 49 -32 32 -58 61 -58 64 0 13 98 -4 122
-21 19 -14 26 -16 22 -6 -4 9 4 16 24 20 50 12 192 16 215 7 18 -7 26 -5 35
10 9 14 24 19 54 19 23 0 38 3 34 7 -8 8 87 29 177 39 38 4 67 14 78 25 11 11
27 19 37 19 26 1 53 25 47 42 -4 11 2 18 19 22 14 3 33 20 43 36 11 20 25 30
41 30 13 0 38 6 55 14 18 7 43 18 57 24 l25 11 -24 0 c-23 1 -24 2 -6 21 10
11 26 20 36 20 22 0 34 16 17 23 -7 3 6 6 28 6 49 1 68 26 31 40 -18 7 -13 10
31 16 38 5 50 10 43 19 -14 17 11 45 48 52 17 4 31 10 31 15 0 5 7 5 17 2 10
-4 14 -2 9 5 -3 6 3 13 14 17 11 3 20 12 20 18 0 7 9 18 20 25 11 7 20 19 20
27 0 8 7 15 15 15 8 0 15 7 15 15 0 8 6 15 13 15 8 0 7 4 -3 10 -12 8 -10 10
10 11 20 1 17 4 -15 13 l-40 13 50 10 c46 10 47 11 15 12 -28 1 -32 4 -20 12
11 8 9 9 -10 3 -14 -4 -28 -11 -31 -16 -3 -5 -9 -2 -13 7 -9 23 -8 25 8 25 8
0 18 5 21 11 4 6 0 9 -11 7 -24 -4 -20 30 4 49 12 8 13 12 4 13 -10 0 -10 5
-1 22 9 18 9 20 -4 15 -20 -8 -29 3 -16 19 8 10 5 11 -13 6 -19 -4 -21 -3 -12
9 17 21 26 69 14 69 -7 0 -8 6 -2 18 5 9 7 22 5 29 -2 7 1 21 6 32 11 20 -2
40 -14 21 -7 -12 -26 -14 -24 -3 4 24 -3 35 -16 29 -14 -5 -14 -4 0 16 19 29
19 35 -2 35 -22 0 -45 -16 -38 -27 3 -5 1 -11 -4 -15 -6 -3 -8 6 -5 22 l5 28
-26 -25 -26 -24 15 36 c8 19 13 38 10 41 -3 3 3 31 14 61 11 31 16 53 11 50
-18 -11 -27 6 -16 30 7 13 15 22 18 20 4 -2 5 5 2 17 -5 17 -2 20 18 17 20 -2
24 1 22 22 -1 14 0 18 3 8 7 -24 14 -23 41 9 13 14 23 21 23 14 0 -7 5 -9 11
-5 7 4 9 0 5 -13 -10 -30 3 -55 24 -48 27 8 33 -10 15 -44 -21 -42 -19 -46 10
-14 23 26 24 27 25 7 0 -12 7 -27 15 -34 9 -7 14 -19 11 -27 -3 -7 -1 -13 4
-13 6 0 10 -10 10 -21 0 -18 2 -20 16 -9 8 8 14 9 13 4 -4 -22 2 -34 17 -34 9
0 12 -5 8 -12 -12 -20 77 -1 99 21 17 16 18 23 8 35 -7 8 -10 20 -6 26 3 5 0
10 -7 10 -9 1 -8 5 4 13 12 10 15 23 12 45 -4 23 -1 34 10 38 9 3 16 16 16 28
0 11 7 30 15 40 8 11 15 32 15 47 0 22 -4 27 -19 24 -14 -3 -18 1 -14 16 3 11
2 19 -3 18 -28 -5 -33 2 -24 27 15 37 12 44 -12 41 -19 -2 -23 2 -21 26 1 17
-2 25 -9 21 -6 -4 -8 1 -3 15 10 33 -4 45 -27 24 -21 -18 -21 -18 -16 9 3 15
1 25 -3 22 -5 -3 -9 2 -9 10 0 10 -6 13 -17 9 -12 -5 -15 -2 -11 8 3 8 1 25
-3 38 l-9 23 -20 -23 -19 -24 -1 35 c-1 31 -2 33 -14 18 -19 -26 -22 -22 -18
16 4 31 2 34 -17 29 -15 -4 -21 -1 -21 11 0 11 -7 16 -17 14 -12 -2 -17 3 -15
13 1 9 -4 19 -12 22 -10 4 -12 0 -8 -15 3 -14 1 -19 -6 -14 -6 3 -13 -2 -16
-11 -3 -10 -3 2 0 27 3 24 10 51 17 59 10 12 9 13 -2 6 -11 -6 -13 -4 -8 8 3
8 9 33 13 54 3 21 12 45 19 53 7 8 14 21 17 29 3 11 7 10 21 -3 9 -10 17 -13
17 -7 0 6 5 11 10 11 6 0 10 -15 10 -32 l0 -33 16 33 c23 45 40 42 35 -8 -1
-8 8 0 20 17 11 18 26 30 32 26 6 -3 7 -1 3 6 -4 6 6 24 23 42 36 36 36 34 15
96 -24 73 -42 110 -59 117 -8 3 -15 11 -15 18 0 17 -33 45 -46 41 -6 -2 -18
12 -27 32 -17 35 -50 48 -60 23 -3 -7 -6 -3 -6 10 -1 21 -21 33 -21 12 0 -7
-8 -6 -22 1 -13 7 -25 12 -28 12 -3 0 -16 3 -28 8 -13 5 -28 6 -34 3 -6 -4
-14 0 -19 7 -7 11 -9 9 -9 -6 0 -15 -2 -17 -9 -7 -5 8 -17 12 -27 10 -11 -2
-27 5 -36 16 -18 19 -18 19 -18 -5 l0 -24 -20 25 c-11 14 -20 21 -19 15 1 -5
1 -18 0 -28 -1 -15 -4 -16 -23 -5 -13 7 -31 19 -40 27 -18 14 -23 8 -19 -24 1
-5 -6 -1 -14 9 -19 25 -19 75 0 82 9 4 13 16 11 35 -3 24 -1 27 10 18 11 -9
14 -7 14 9 0 12 6 19 17 18 11 -1 20 10 26 32 6 17 16 32 22 32 7 0 16 7 19
16 4 9 13 14 21 10 10 -4 15 1 15 15 0 13 4 18 12 13 8 -5 9 -2 5 9 -8 21 9
22 20 2 6 -9 8 1 8 30 0 32 -6 49 -22 65 -13 11 -23 27 -23 36 0 8 -7 17 -15
20 -8 4 -13 9 -10 14 2 4 -6 17 -19 29 -21 20 -25 21 -39 6 -14 -14 -17 -14
-26 2 -10 17 -10 17 -11 -1 0 -14 -5 -17 -25 -12 -20 5 -25 3 -25 -11 -1 -16
-3 -15 -19 5 -11 12 -22 22 -25 22 -3 0 -6 -10 -6 -22 -1 -23 -1 -23 -16 -3
-12 14 -18 16 -21 7 -4 -10 -8 -10 -20 -1 -10 9 -17 9 -21 2 -4 -6 -18 -13
-32 -14 -14 -2 -31 -9 -38 -16 -10 -10 -19 -8 -44 7 -17 10 -37 16 -44 13 -17
-6 -17 -2 -4 32 7 19 15 25 26 21 12 -4 14 -1 9 14 -8 24 3 26 19 4 10 -13 12
-10 12 19 0 19 6 43 14 52 12 15 15 15 26 -6 l12 -22 11 21 c14 27 14 35 -1
26 -7 -5 -8 -3 -4 5 6 9 13 8 27 -5 18 -16 19 -17 13 -1 -7 19 13 50 26 42 5
-3 11 -1 15 5 4 6 10 8 15 5 5 -3 21 0 37 7 15 6 34 10 41 9 6 -1 12 4 13 11
0 7 2 51 3 98 2 47 11 107 21 133 16 48 15 62 -8 62 -7 1 -11 7 -9 13 2 10 -3
10 -17 2 -27 -14 -29 -13 -25 15 2 22 -1 25 -18 19 -17 -5 -20 -3 -14 11 4 12
2 16 -8 12 -11 -4 -13 -1 -9 10 5 13 3 14 -16 3 -22 -11 -23 -11 -17 22 5 26
5 29 -4 16 -12 -20 -40 -13 -40 9 0 13 -3 13 -15 3 -13 -11 -15 -8 -15 15 0
27 0 28 -20 10 -19 -18 -20 -17 -20 4 0 20 -4 22 -35 18 -27 -4 -35 -1 -36 12
0 10 -2 11 -6 4 -7 -19 -23 -16 -42 8 -15 19 -19 20 -32 6 -14 -13 -17 -13
-27 4 -7 10 -18 16 -27 13 -10 -4 -18 2 -24 17 -7 17 -10 19 -10 7 -1 -27 -20
-31 -30 -6 -6 13 -10 17 -10 11 -1 -7 -8 -13 -16 -13 -8 0 -15 -8 -16 -17 0
-11 -3 -13 -6 -5 -2 6 -8 10 -13 7 -5 -3 -11 4 -15 14 -6 20 -6 20 -26 0 -11
-11 -25 -17 -31 -13 -7 4 -8 3 -4 -4 8 -13 -29 -54 -40 -44 -4 4 -4 2 0 -5 10
-19 -5 -97 -16 -81 -6 8 -8 -1 -5 -30 3 -23 2 -40 -3 -37 -4 2 -6 -22 -4 -55
2 -40 -1 -58 -8 -54 -6 4 -6 -1 1 -14 14 -27 15 -54 1 -32 -15 23 -12 -3 6
-45 9 -23 11 -34 3 -30 -17 11 -30 -17 -16 -34 9 -12 9 -13 0 -7 -7 4 -13 3
-13 -3 0 -5 5 -13 10 -16 16 -10 12 -25 -7 -25 -15 0 -13 -4 7 -23 14 -12 19
-17 11 -12 -8 6 -2 -11 13 -37 15 -27 25 -48 22 -48 -4 0 -2 -9 4 -20 9 -17 8
-19 -7 -13 -14 6 -14 2 5 -21 12 -16 22 -38 22 -50 0 -12 5 -27 12 -34 9 -9 9
-12 0 -12 -9 0 -7 -9 5 -27 17 -26 17 -27 -1 -20 -11 4 16 -30 60 -75 l79 -83
-35 -6 c-29 -5 -31 -7 -8 -8 18 -1 33 -11 47 -34 11 -18 34 -45 51 -60 16 -15
30 -33 30 -40 0 -7 9 -18 20 -25 12 -7 18 -17 15 -22 -3 -6 1 -10 9 -10 9 0
16 -4 16 -8 0 -5 21 -24 48 -42 55 -39 82 -65 82 -80 0 -5 9 -10 20 -10 11 0
20 -6 20 -14 0 -8 6 -21 13 -28 7 -7 16 -21 20 -30 3 -10 12 -18 19 -18 7 0
19 -15 27 -32 21 -47 69 -117 105 -149 26 -24 29 -30 16 -39 -13 -8 -13 -10 2
-10 9 0 20 -10 25 -22 18 -50 87 -157 97 -151 6 4 5 -1 -2 -10 -8 -9 -10 -22
-6 -29 6 -10 5 -10 -7 -1 -11 9 -14 7 -14 -12 0 -13 3 -21 6 -19 4 2 10 -3 13
-12 3 -8 2 -13 -3 -10 -11 7 -26 -141 -22 -222 2 -41 -1 -68 -10 -80 -13 -16
-12 -16 5 -2 18 14 19 13 13 -3 -4 -11 -4 -24 0 -30 11 -17 15 -45 18 -120 3
-58 1 -70 -16 -80 -10 -6 -19 -19 -19 -28 0 -17 -30 -22 -30 -5 -1 19 -40 -38
-40 -59 -1 -15 -3 -17 -8 -5 -12 26 -41 23 -48 -5 -3 -14 -17 -34 -30 -44 -13
-10 -24 -25 -24 -32 0 -11 -3 -11 -10 1 -8 12 -10 11 -10 -8 0 -13 -6 -35 -14
-50 -8 -15 -15 -45 -17 -67 -3 -34 -1 -40 14 -38 13 1 17 -4 13 -15 -3 -10 4
-5 17 11 12 15 26 27 30 27 4 0 4 -12 1 -28 l-7 -27 23 20 23 20 -7 -25 -7
-25 16 25 16 25 -4 -27 c-4 -23 -2 -26 14 -18 10 6 25 7 35 3 11 -4 15 -3 11
4 -5 7 0 9 13 6 18 -5 18 -7 4 -35 -9 -17 -11 -27 -6 -24 6 4 14 1 17 -5 4 -5
13 -8 21 -5 13 5 10 -14 -5 -39 -4 -5 -8 -22 -10 -37 -2 -23 1 -27 16 -22 11
4 8 -3 -11 -19 l-29 -25 31 -7 c18 -3 37 -3 44 1 7 4 2 -4 -11 -19 -21 -24
-22 -25 -3 -20 31 8 35 -13 7 -35 -30 -24 -32 -32 -6 -25 15 4 20 0 18 -16 -1
-12 -9 -24 -19 -27 -18 -5 -25 -24 -10 -24 4 0 8 -9 8 -20 0 -11 -4 -20 -8
-20 -15 0 -8 -19 10 -23 12 -3 10 -5 -7 -6 -24 -1 -24 -1 -5 -16 10 -8 14 -15
7 -15 -6 0 -19 -3 -29 -7 -12 -4 -15 -3 -10 5 4 7 5 12 3 12 -14 0 -74 -26
-85 -36 -7 -7 -19 -11 -27 -8 -19 8 -19 -1 1 -20 13 -14 13 -16 0 -16 -8 0
-17 9 -21 19 -3 11 -12 18 -19 15 -7 -3 -19 2 -26 11 -10 12 -10 15 1 15 12 0
12 2 0 9 -10 7 -8 12 10 25 13 9 17 16 10 16 -11 0 -11 3 0 16 12 15 11 16
-11 10 l-25 -7 24 19 c14 11 21 24 17 31 -4 7 -1 23 8 36 15 22 14 24 -4 30
-11 3 -25 3 -31 -1 -8 -4 -9 -3 -5 5 4 6 0 18 -8 27 -19 19 -21 55 -3 74 6 7
-4 2 -23 -11 -19 -13 -45 -24 -57 -24 -21 -1 -22 1 -8 22 17 25 20 47 5 38 -6
-4 -7 6 -4 25 4 17 2 30 -4 30 -5 0 -9 6 -8 14 0 8 -1 14 -4 13 -3 -1 -16 8
-29 20 -27 25 -87 35 -103 16 -6 -8 -17 -12 -24 -9 -7 3 -17 -1 -23 -8 -6 -7
-23 -11 -40 -8 -25 3 -39 -6 -97 -63 -38 -37 -61 -64 -51 -61 9 3 17 0 17 -6
0 -7 5 -6 15 2 13 11 14 10 9 -6 -7 -18 -6 -18 16 1 13 11 20 14 15 6 -6 -11
-4 -13 8 -8 10 3 17 2 17 -4 0 -6 5 -7 11 -3 8 5 8 1 0 -14 -16 -30 -15 -47 2
-33 8 6 17 8 20 4 4 -3 13 0 21 6 10 8 16 9 21 1 3 -5 -1 -13 -10 -16 -9 -4
-13 -13 -10 -24 3 -9 -4 -29 -16 -43 -18 -24 -18 -27 -4 -27 15 0 16 -2 4 -16
-12 -15 -11 -16 11 -9 14 4 31 10 38 12 15 6 16 -12 1 -40 -9 -16 -9 -22 0
-25 6 -2 9 -7 6 -12 -3 -5 5 -12 17 -16 22 -7 22 -7 3 -15 -17 -6 -15 -8 11
-8 20 -1 31 -6 31 -16 0 -8 -4 -15 -9 -15 -5 0 -4 -9 2 -20 6 -11 7 -20 3 -20
-4 0 -2 -4 5 -8 10 -7 7 -15 -12 -33 -25 -25 -24 -40 4 -53 8 -3 4 -5 -11 -3
-25 3 -49 -13 -49 -33 0 -5 -6 -10 -12 -10 -9 0 -8 -4 2 -10 22 -14 -6 -13
-32 1 -12 6 -44 11 -72 10 -29 0 -46 3 -38 7 9 6 6 12 -13 20 -31 14 -32 28
-2 38 21 7 21 7 -6 17 -26 8 -27 10 -12 27 11 12 13 20 5 25 -6 4 -8 16 -5 26
5 16 0 23 -24 32 -19 7 -29 17 -27 24 5 13 -6 17 -31 14 -17 -2 -16 5 4 35 13
21 14 25 2 24 -28 -4 -39 0 -39 15 0 8 -4 15 -10 15 -5 0 -10 9 -10 20 0 11
-6 20 -14 20 -8 0 -18 9 -21 20 -5 15 -12 19 -25 15 -17 -5 -18 -3 -9 30 13
44 10 49 -25 36 -26 -11 -31 -6 -27 27 2 9 -6 11 -26 6 -69 -17 -104 -74 -45
-74 22 0 28 -4 27 -19 -1 -11 -7 -26 -14 -35 -16 -19 -12 -20 24 -6 23 9 26 8
21 -5 -3 -9 0 -15 9 -15 15 0 22 -20 8 -20 -5 0 -16 -12 -26 -26 -10 -14 -13
-23 -6 -22 21 5 21 -20 0 -41 -12 -12 -16 -21 -10 -21 6 0 4 -7 -5 -15 -8 -8
-19 -15 -24 -15 -6 0 -12 -4 -14 -8 -1 -5 -22 -12 -45 -16 l-43 -6 0 33 c0 18
8 43 17 57 11 16 17 46 18 90 1 36 7 75 13 87 10 18 8 22 -18 33 -31 13 -75 7
-127 -17 -43 -20 -43 -37 0 -29 23 4 28 3 17 -4 -10 -6 -11 -10 -2 -10 20 0
14 -20 -10 -30 -21 -8 -21 -9 -3 -10 20 -1 20 -1 1 -15 -11 -8 -28 -15 -38
-15 -10 0 -18 -4 -18 -10 0 -14 -38 -50 -52 -50 -10 0 -10 -2 0 -8 9 -6 6 -12
-10 -20 -19 -11 -30 -9 -63 8 -21 11 -47 20 -57 20 -10 0 -18 4 -18 8 0 4 -16
14 -35 21 -34 12 -48 31 -23 31 6 0 9 3 5 6 -3 4 4 21 17 38 41 56 29 119 -27
139 -33 12 -123 -49 -105 -72 2 -2 -8 -8 -21 -12 -17 -7 -22 -15 -18 -29 3
-11 1 -20 -4 -20 -5 0 -9 5 -9 10 0 6 -5 10 -12 10 -6 0 -9 -3 -5 -6 12 -12
-24 -36 -48 -32 -13 3 -22 1 -19 -3 10 -17 -11 -8 -38 16 -35 30 -35 35 -2 35
14 0 23 4 19 9 -3 5 1 15 8 23 8 7 12 18 10 25 -2 6 5 14 17 18 11 3 18 11 14
16 -3 6 8 15 25 22 17 6 31 14 31 17 0 7 -51 30 -69 30 -13 0 -13 2 -2 9 9 6
-3 12 -38 21 -59 14 -131 5 -131 -16 0 -8 -11 -20 -25 -26 -21 -9 -33 -8 -63
5 -29 14 -33 14 -18 2 11 -8 17 -17 14 -20 -3 -3 -20 6 -38 22 -29 24 -31 28
-14 34 17 7 16 8 -4 8 -39 1 -102 39 -102 61 0 14 7 20 21 20 21 0 21 0 -2 21
-23 19 -23 20 -2 10 44 -22 54 -14 30 24 -12 19 -28 32 -34 30 -7 -2 -16 1
-20 8 -13 21 -105 74 -151 88 -23 7 -40 14 -38 16 11 11 -36 42 -70 48 -36 5
-80 33 -69 43 10 10 -18 32 -41 32 -15 0 -22 5 -18 13 2 7 -12 29 -33 48 -21
20 -69 68 -106 107 -43 45 -77 72 -90 72 -14 1 -30 13 -42 33 -11 17 -54 56
-95 85 -80 58 -96 80 -71 99 14 10 11 17 -28 57 -24 25 -48 43 -52 40 -12 -7
-65 70 -85 124 -22 58 -73 139 -108 171 -17 16 -23 28 -16 36 6 7 -4 17 -35
30 -38 17 -48 28 -70 78 -21 45 -25 67 -20 97 4 26 2 48 -9 68 -9 17 -13 38
-10 46 8 21 -31 102 -55 116 -26 13 -68 13 -73 -1 -2 -7 -11 -7 -30 1 -29 14
-38 46 -38 140 0 63 -11 80 -52 80 -34 0 -43 26 -34 102 12 99 10 110 -18 133
-20 16 -27 32 -30 69 -2 26 -6 49 -9 52 -11 12 18 91 43 115 15 14 30 35 34
46 4 11 18 25 31 31 18 9 25 19 25 41 0 41 9 61 29 62 10 0 11 2 4 6 -23 9
-13 28 27 51 27 15 48 38 62 67 16 33 28 45 50 49 17 3 43 20 59 37 16 17 29
26 29 20 0 -7 21 12 46 41 57 65 74 79 87 71 6 -3 7 -1 3 6 -13 20 24 25 42 5
16 -17 16 -17 0 -5 -11 8 -18 9 -18 3 0 -6 9 -13 20 -17 11 -3 29 -19 40 -34
21 -30 172 -110 215 -113 13 -1 21 -6 19 -10 -3 -4 0 -8 6 -8 6 0 9 -4 5 -9
-5 -10 34 -56 54 -62 10 -4 28 -91 41 -199 7 -67 30 -132 55 -160 7 -8 14 -18
14 -22 1 -5 4 -8 9 -9 4 0 13 -5 20 -11 7 -6 27 -18 45 -27 28 -14 32 -20 29
-53 -4 -47 15 -84 73 -137 35 -32 52 -41 69 -37 17 4 28 -2 45 -25 20 -27 23
-44 24 -130 1 -54 4 -99 6 -99 3 0 18 12 34 28 l29 27 -29 -47 c-30 -51 -54
-63 -145 -75 -27 -3 -48 -8 -48 -10 0 -2 12 -14 27 -27 22 -19 25 -27 16 -38
-10 -12 -6 -13 24 -10 26 3 34 1 28 -7 -4 -7 -9 -10 -12 -7 -9 9 -45 -32 -38
-43 3 -6 11 -8 17 -5 7 4 8 2 4 -4 -5 -8 -13 -9 -25 -2 -20 10 -34 37 -27 49
3 4 -5 8 -17 8 -41 4 -68 14 -62 23 3 6 -5 10 -19 10 -29 0 -36 -19 -8 -21 9
-1 4 -5 -13 -11 -38 -12 -72 -55 -56 -71 10 -10 56 -13 96 -6 11 2 19 -1 18
-7 -1 -6 8 -9 22 -7 28 6 59 -34 49 -63 -5 -16 -4 -17 6 -4 9 13 11 12 8 -5
-2 -13 -11 -20 -24 -19 -15 0 -20 -5 -17 -16 3 -11 -4 -16 -22 -18 -37 -3 -45
-9 -45 -37 0 -18 4 -23 15 -19 8 4 15 2 15 -4 0 -15 -26 -9 -50 13 -14 12 -20
14 -20 5 0 -9 -6 -7 -21 6 -11 10 -18 26 -16 35 6 21 -16 32 -31 17 -12 -12
-27 25 -17 41 3 6 -3 15 -14 20 -17 10 -23 5 -47 -46 -32 -64 -32 -87 -4 -143
24 -47 26 -126 5 -177 -20 -48 -19 -60 10 -88 31 -32 45 -32 45 0 0 15 15 42
38 66 l37 42 7 -54 c9 -70 43 -162 73 -197 22 -25 29 -27 103 -27 74 0 82 -2
105 -27 38 -41 116 -53 210 -33 34 7 41 5 66 -19 25 -24 35 -27 84 -24 30 1
54 5 52 8 -2 3 19 5 45 6 57 1 98 24 113 65 8 20 16 27 28 24 14 -5 17 2 17
35 0 22 3 43 6 48 2 4 6 56 7 115 2 81 6 107 15 103 18 -7 31 13 39 57 6 30
14 41 39 52 17 7 26 14 19 14 -6 1 -9 10 -6 21 3 13 0 20 -8 20 -10 0 -10 3
-1 12 14 14 16 78 2 78 -5 0 -10 8 -10 18 0 15 2 15 11 2 7 -11 8 12 4 78 -5
66 -4 92 4 92 7 0 11 6 9 13 -2 6 8 30 22 52 25 39 25 45 18 155 -2 33 12 99
23 105 4 3 6 12 2 20 -3 9 0 21 5 28 6 7 8 24 5 37 -6 22 -7 23 -15 4 -5 -12
-6 -5 -3 21 3 22 1 47 -5 55 -8 13 -10 12 -10 -2 0 -10 1 -19 2 -20 1 -2 -5
-14 -12 -28 -7 -13 -13 -33 -14 -44 -1 -11 -6 -21 -13 -23 -12 -4 -12 14 -1
32 3 6 11 37 17 70 6 32 16 64 21 69 6 6 10 16 10 23 0 10 -6 9 -26 -3 -18
-13 -28 -14 -36 -6 -8 8 -7 13 4 17 11 4 14 16 11 42 -2 19 1 41 7 48 8 9 8
14 0 17 -6 2 -12 10 -13 18 -4 24 -18 41 -28 35 -11 -8 -11 6 0 24 8 12 12 12
25 2 27 -23 47 3 40 53 -4 31 -3 37 5 26 10 -13 14 -11 32 10 23 28 82 151 75
157 -2 3 -18 -3 -35 -12 -35 -18 -38 -14 -16 19 19 29 46 123 46 157 -1 14 8
34 20 45 11 10 26 28 31 39 10 19 10 19 -8 4 -10 -9 -34 -24 -51 -33 -27 -14
-33 -14 -33 -2 0 7 15 19 33 27 32 13 47 26 47 43 0 6 -6 3 -12 -5 -7 -8 -25
-20 -40 -27 -23 -10 -28 -9 -28 3 0 8 11 17 24 21 23 5 30 14 35 39 2 6 10 18
18 28 9 9 11 17 6 17 -16 0 -36 -28 -29 -39 10 -16 -30 -31 -64 -24 l-32 6 31
13 c34 14 38 23 19 42 -9 9 -9 12 -1 12 7 0 15 -4 18 -10 3 -5 11 -10 16 -10
6 0 7 5 3 11 -4 7 4 20 17 30 19 14 21 20 12 29 -7 5 -11 7 -8 4 13 -18 -21
-34 -71 -34 -41 0 -54 4 -54 15 0 8 5 15 10 15 6 0 10 5 10 11 0 5 -4 7 -10 4
-5 -3 -10 -1 -10 6 0 7 -8 21 -17 31 -14 15 -14 19 -3 16 8 -2 18 -7 22 -13 4
-5 8 3 8 18 0 22 -6 30 -31 39 -21 7 -27 13 -18 18 9 6 9 12 -4 24 -18 18 -40
20 -67 6 -15 -8 -20 -4 -30 20 -17 41 -27 38 -38 -12 -9 -47 -6 -61 8 -38 9
14 14 7 11 -12 -2 -12 14 -9 35 7 10 8 30 14 44 15 18 0 9 -8 -35 -29 -33 -16
-54 -30 -47 -30 7 -1 10 -6 7 -11 -4 -6 4 -5 19 1 14 7 23 16 20 20 -9 16 45
30 60 16 11 -10 5 -16 -33 -34 -25 -12 -52 -22 -60 -22 -9 -1 -11 -8 -7 -23 4
-13 9 -34 11 -48 7 -47 25 -123 30 -128 3 -3 5 7 5 21 0 15 4 27 8 27 5 0 8
-14 7 -30 -1 -23 2 -29 12 -26 21 8 27 -20 9 -45 -11 -17 -13 -26 -5 -36 6 -7
8 -21 4 -30 -11 -25 -16 -43 -22 -80 -3 -18 -11 -38 -19 -44 -8 -6 -14 -17
-14 -23 0 -6 -9 -22 -20 -36 l-20 -25 2 42 c2 33 7 43 21 43 9 0 17 3 18 8 6
84 6 87 -4 65 -11 -25 -24 -28 -47 -12 -12 9 -10 10 8 6 14 -3 22 -1 21 6 -1
7 2 23 8 37 22 52 24 86 8 100 -8 7 -15 18 -15 24 0 6 5 4 10 -4 8 -13 10 -13
10 2 0 9 -4 20 -10 23 -5 3 -10 17 -10 31 0 15 -4 23 -10 19 -6 -4 -9 -14 -6
-23 3 -10 1 -33 -3 -52 -5 -19 -9 -26 -10 -15 -2 34 -19 2 -24 -43 -6 -63 -23
-74 -32 -20 -9 53 -15 64 -26 47 -11 -18 -23 34 -15 66 5 18 13 25 31 25 14 0
25 4 25 9 0 13 -17 23 -23 14 -2 -5 -2 -2 0 6 2 7 -9 25 -24 39 -26 24 -28 24
-31 6 -2 -10 -11 -24 -19 -31 -9 -7 -17 -27 -18 -45 -2 -25 -1 -28 7 -15 15
28 57 66 63 58 2 -5 -5 -17 -16 -27 -30 -27 -61 -82 -54 -96 4 -7 -5 0 -19 15
-40 44 -36 100 10 143 19 19 42 34 50 34 17 0 63 -49 64 -67 0 -22 35 -34 55
-19 17 12 17 16 -8 61 -31 54 -30 69 2 29 11 -15 21 -22 21 -16 0 6 -5 14 -11
18 -6 3 -9 14 -6 24 3 14 1 17 -11 13 -8 -4 -13 -2 -9 3 3 6 -3 16 -15 23 -11
7 -17 8 -13 2 3 -6 -1 -11 -9 -11 -8 0 -20 9 -26 21 -7 11 -14 18 -17 15 -3
-3 0 -12 6 -20 7 -8 10 -19 7 -24 -3 -4 9 -6 27 -4 53 7 25 -7 -54 -28 -82
-21 -111 -45 -128 -108 -17 -60 -14 -68 46 -114 88 -67 122 -148 83 -198 l-20
-25 0 53 c0 29 -6 68 -14 87 -16 37 -59 71 -77 59 -7 -4 -9 -3 -5 4 6 10 -27
36 -36 27 -18 -18 6 123 29 167 13 28 78 68 108 68 21 0 19 19 -10 96 -14 36
-25 86 -25 110 0 59 -26 60 -42 2 -10 -39 -20 -49 -97 -100 -93 -61 -126 -77
-213 -102 -79 -23 -118 -68 -118 -137 0 -105 38 -179 91 -179 11 0 19 -4 19
-10 0 -5 -11 -10 -24 -10 -42 0 -82 20 -100 51 -26 45 -32 137 -12 195 9 26
16 48 16 50 0 7 -75 -26 -78 -35 -2 -6 -8 -11 -14 -11 -7 0 -6 5 1 14 9 11 9
15 -1 19 -7 3 -3 6 8 6 53 2 95 84 54 103 -9 4 -2 7 18 7 17 1 31 6 30 12 -2
6 8 18 22 27 23 16 24 16 17 -1 -4 -10 -3 -16 2 -12 5 3 11 -2 13 -11 3 -13 6
-13 23 3 26 24 53 35 60 23 3 -5 -2 -13 -12 -18 -9 -5 -18 -17 -19 -26 -3 -19
17 -15 71 12 52 26 198 136 186 140 -6 2 -9 8 -5 13 3 5 -2 9 -10 9 -11 0 -16
10 -16 30 0 19 -9 39 -23 53 -13 12 -26 30 -30 40 -4 10 -11 15 -17 12 -5 -3
-10 -1 -10 4 0 15 -29 14 -44 -1 -18 -19 -27 -48 -19 -61 11 -18 12 -37 3 -37
-5 0 -14 -2 -22 -5 -7 -3 -22 1 -32 8 -19 14 -18 16 13 62 18 27 30 56 28 66
-3 11 0 16 8 13 16 -6 29 26 16 39 -7 7 -5 14 6 22 16 12 16 15 -1 40 -12 18
-24 25 -37 22 -25 -7 -25 10 0 18 11 3 60 -8 110 -25 118 -39 166 -39 285 4
52 19 105 40 118 47 53 27 179 103 184 111 7 11 -19 10 -52 -2 -14 -6 -70 -20
-123 -31 -119 -26 -222 -21 -331 16 -61 20 -67 24 -33 20 23 -3 44 -1 47 4 3
5 -4 7 -16 3 -14 -3 -19 -2 -14 6 4 7 14 12 22 12 8 0 14 4 14 9 0 5 28 16 63
24 34 9 54 16 45 16 -35 2 -17 17 60 48 67 27 84 30 118 23 21 -5 50 -9 64 -8
22 1 23 1 3 5 -12 2 -27 11 -33 19 -10 11 -8 14 13 14 14 0 28 -4 31 -9 3 -4
18 -7 33 -6 15 1 62 3 103 4 l75 1 50 50 c28 27 59 49 71 50 40 0 204 -117
204 -147 0 -18 107 -18 112 -1 3 7 0 28 -6 47 -12 40 -174 194 -239 228 l-42
22 75 3 c41 2 -1 3 -95 2 -241 -1 -279 -14 -532 -182 -121 -80 -177 -102 -258
-102 l-53 0 14 40 c21 60 32 187 20 212 -34 66 -153 75 -268 21 -70 -33 -85
-45 -45 -36 21 4 21 4 2 -8 -11 -6 -46 -34 -78 -61 -35 -30 -64 -48 -72 -44
-9 3 -15 9 -14 13 3 20 -3 23 -22 12 -20 -10 -21 -9 -17 15 6 29 -1 33 -22 14
-19 -18 17 41 44 70 49 55 187 112 269 112 l42 0 -40 34 c-22 19 -43 32 -46
31 -3 -2 1 23 9 56 8 32 19 59 23 59 5 0 9 10 9 23 0 15 3 18 8 9 6 -9 12 -6
20 13 6 14 20 25 29 25 14 0 15 2 5 9 -10 6 -5 14 22 31 42 26 56 47 56 89 0
16 5 33 10 36 11 7 12 143 1 190 -6 26 -8 21 -15 -33 -5 -38 -15 -71 -28 -85
l-19 -22 8 25 c13 40 8 142 -9 180 l-15 35 5 -47 c8 -77 -6 -155 -34 -185 -13
-14 -24 -28 -24 -31 0 -10 34 25 52 53 22 36 24 25 3 -18 -20 -42 -73 -77
-114 -77 -39 0 -101 35 -101 57 0 8 -6 13 -12 10 -16 -5 -12 -71 7 -107 8 -15
12 -30 10 -34 -3 -3 -2 -4 1 -1 4 2 13 -2 21 -10 19 -20 103 -19 151 0 20 9
47 27 59 42 12 15 25 24 28 21 14 -14 -17 -47 -67 -72 -60 -30 -126 -34 -181
-11 -46 19 -78 20 -71 2 3 -8 -3 -20 -12 -28 -16 -13 -17 -11 -12 14 4 19 1
27 -8 27 -19 0 -18 -40 2 -61 23 -25 11 -82 -23 -109 -41 -32 -94 -27 -138 14
-25 24 -36 42 -33 57 4 30 28 37 28 9 0 -11 7 -34 15 -50 19 -36 51 -39 90 -8
24 19 26 26 21 61 l-7 41 23 -20 22 -19 -17 27 c-9 15 -17 35 -17 44 0 13 -8
15 -44 11 -55 -7 -146 -52 -146 -72 0 -27 27 -81 51 -104 24 -23 20 -27 -12
-11 -23 13 -49 71 -49 111 0 30 15 49 60 76 37 21 44 41 35 96 -6 31 -19 53
-51 85 -24 24 -44 50 -44 58 0 9 13 0 31 -21 29 -32 59 -49 44 -24 -4 6 1 16
11 23 15 11 13 12 -14 8 -21 -3 -32 0 -32 7 0 7 5 9 10 6 16 -10 11 11 -6 25
-24 21 -36 50 -43 104 -6 47 -7 49 -23 32 -13 -12 -18 -14 -18 -4 0 8 -4 7
-11 -4 -6 -10 -22 -18 -37 -18 -23 0 -30 7 -41 36 -7 19 -18 33 -24 31 -5 -1
-18 -27 -27 -55 -24 -73 -29 -74 -24 -6 15 208 15 228 -3 264 -31 60 -76 71
-203 47 l-65 -12 96 0 c99 0 149 -17 149 -50 0 -12 -5 -12 -35 1 -190 79 -554
-154 -685 -441 -64 -141 -61 -135 -55 -95 3 19 35 94 71 165 36 72 56 121 45
110 -25 -26 -121 -206 -121 -228 0 -9 -4 -17 -10 -17 -5 0 -13 -18 -16 -40 -4
-22 -10 -37 -14 -35 -11 7 6 67 39 135 36 75 43 92 31 85 -6 -3 -7 1 -4 9 3 9
10 13 15 10 5 -3 6 2 3 11 -8 21 -26 6 -59 -50 -14 -24 -40 -54 -58 -66 -17
-12 -52 -42 -76 -66 -37 -38 -43 -49 -39 -76 6 -43 -4 -92 -20 -93 -6 -1 -16
-2 -22 -3 -5 0 -10 -8 -10 -16 0 -14 -34 -55 -45 -55 -3 0 -5 8 -6 18 0 13 -2
12 -9 -5 -10 -24 -30 -31 -30 -11 0 6 -6 4 -13 -7 -8 -10 -19 -15 -25 -11 -7
4 -12 3 -12 -2 0 -14 -69 -8 -75 6 -3 8 -13 11 -25 7 -16 -5 -20 -2 -21 17 l0
23 -16 -22 c-21 -31 -33 -29 -33 5 0 19 -3 23 -9 13 -7 -11 -10 -10 -14 5 -4
15 -5 15 -6 2 -2 -28 -41 -10 -41 19 0 22 -2 24 -15 13 -12 -10 -15 -10 -15 0
0 9 -3 10 -14 1 -11 -9 -15 -6 -18 13 -7 38 9 56 49 56 28 0 34 -3 29 -16 -3
-8 7 -3 22 12 29 28 173 93 208 94 11 0 24 -3 28 -7 3 -4 13 -8 20 -9 7 -1 26
-5 42 -8 25 -5 31 -2 46 23 11 20 15 42 11 69 -4 33 -2 42 18 56 13 9 20 16
16 16 -5 0 -1 7 8 16 9 10 13 24 10 38 -5 17 -4 18 4 6 9 -13 11 -13 11 2 0
11 5 15 14 12 7 -3 20 2 28 10 12 11 18 12 28 3 10 -10 10 -8 1 10 -10 20 -9
22 6 16 16 -6 16 -4 -2 17 l-20 23 25 -13 25 -13 -20 23 c-11 13 -14 20 -7 16
7 -4 24 -9 38 -12 19 -3 24 -1 18 8 -6 10 -3 9 9 -1 9 -7 17 -9 17 -3 0 15
-28 35 -40 27 -5 -3 -10 0 -10 8 0 10 7 13 20 10 11 -3 20 -10 20 -16 0 -7 5
-6 13 2 10 10 8 15 -6 26 -11 7 -26 11 -35 8 -14 -4 -14 -3 -3 5 11 8 8 13
-17 26 -36 19 -62 21 -62 5 0 -6 7 -8 16 -5 8 3 13 2 10 -3 -3 -5 1 -11 9 -15
22 -8 18 -26 -5 -26 -13 0 -20 -7 -20 -20 0 -11 -6 -20 -13 -20 -7 0 -18 -9
-24 -19 -26 -42 -193 -2 -193 46 0 8 7 27 15 43 14 27 14 30 0 30 -8 0 -15 5
-15 10 0 6 -7 10 -15 10 -9 0 -18 6 -21 14 -3 7 -22 22 -43 32 -30 14 -38 24
-38 46 0 15 4 28 9 28 4 0 8 4 8 10 0 5 -6 9 -12 7 -9 -1 -13 11 -14 33 0 19
-6 46 -13 59 -11 19 -11 22 1 15 11 -6 11 -5 -1 9 -9 12 -10 17 -2 17 7 0 9 5
6 10 -3 6 1 10 11 10 13 0 14 3 4 14 -17 22 -9 61 13 59 13 -1 17 4 13 14 -4
11 -2 13 9 9 10 -3 17 3 21 19 7 29 31 52 31 30 0 -8 -4 -15 -9 -15 -4 0 -8
-13 -8 -29 0 -28 1 -29 30 -18 17 6 30 15 30 19 0 4 7 8 15 8 9 0 12 -6 9 -15
-4 -8 -1 -21 5 -29 6 -7 9 -20 6 -28 -4 -9 1 -18 10 -21 8 -4 19 -17 24 -29 8
-21 10 -22 16 -4 5 11 3 21 -6 27 -8 5 -9 9 -4 9 16 0 115 -113 115 -132 0 -9
5 -20 10 -23 6 -3 10 -1 10 6 0 8 4 8 16 -2 14 -12 14 -14 -5 -21 -12 -4 -21
-12 -21 -18 0 -12 2 -12 36 0 25 10 26 9 21 -17 -6 -31 14 -52 51 -53 15 0 22
-5 19 -12 -2 -7 -13 -12 -25 -10 -13 2 -25 -5 -32 -18 -9 -17 -7 -24 12 -41
22 -19 92 -59 103 -59 3 0 5 6 5 13 0 7 9 23 19 34 11 12 18 23 16 25 -2 2 0
19 4 38 6 29 4 39 -16 60 l-23 25 22 17 c13 10 29 18 36 18 17 0 15 20 -3 20
-8 0 -15 5 -15 10 0 6 5 10 12 10 9 0 9 3 0 12 -7 7 -12 18 -12 26 0 8 -9 27
-21 43 -17 24 -18 33 -9 44 7 8 21 15 31 15 11 0 19 5 19 10 0 6 -4 10 -10 10
-5 0 -16 14 -25 30 -9 18 -11 30 -5 30 6 0 3 11 -6 25 -9 14 -19 23 -23 21 -4
-3 -13 0 -21 6 -12 8 -12 9 3 4 18 -6 24 9 7 19 -6 4 -8 11 -4 16 3 6 -3 13
-14 16 -13 3 -18 11 -15 23 3 10 0 21 -6 24 -6 4 -8 20 -4 36 5 27 3 30 -18
28 -28 -3 -40 -14 -56 -48 -11 -24 -12 -24 -12 -3 -2 47 -31 30 -31 -17 0 -25
-41 -56 -84 -64 -19 -4 -39 -13 -46 -21 -19 -23 -28 -18 -24 13 2 15 1 21 -2
14 -11 -23 -56 53 -48 82 7 28 -9 62 -40 87 -12 10 -17 21 -13 25 4 5 12 3 16
-5 7 -10 9 -10 14 2 3 9 16 12 39 9 l33 -4 -34 26 c-42 31 -71 42 -80 28 -4
-7 -22 -7 -51 -2 -25 5 -48 9 -51 10 -4 0 -9 8 -11 18 -4 15 0 17 26 14 17 -3
38 -11 47 -18 18 -16 30 -9 22 12 -4 12 0 12 22 4 31 -12 105 -13 105 -2 0 10
-55 52 -68 52 -5 0 -15 7 -22 15 -7 8 -24 15 -39 15 -20 0 -23 2 -11 10 16 11
68 4 88 -12 8 -7 12 -7 12 0 0 11 -91 72 -112 76 -7 1 -24 9 -38 19 -13 9 -30
17 -36 17 -7 0 -14 7 -18 15 -3 8 -1 15 4 15 6 0 10 -4 10 -9 0 -5 33 -19 73
-31 83 -27 127 -49 127 -66 0 -6 12 -20 28 -29 15 -10 44 -37 65 -59 54 -59
91 -139 41 -89 -17 17 -18 17 -11 0 16 -42 19 -70 12 -114 -6 -42 -9 -45 -20
-30 -17 24 -25 21 -25 -8 0 -14 -3 -25 -7 -25 -9 0 -35 -52 -29 -58 3 -2 9 6
16 17 6 12 16 21 23 21 26 0 88 52 102 85 14 35 39 50 29 18 -4 -14 -2 -13 14
4 19 21 20 83 1 83 -5 0 -9 4 -9 9 0 15 -93 111 -108 111 -9 0 -12 3 -8 7 3 4
-4 13 -16 20 -13 7 -17 12 -9 13 20 0 -37 55 -57 55 -10 0 -16 7 -14 17 2 10
-6 18 -20 21 -17 3 -15 5 9 6 17 0 35 -4 39 -11 4 -7 3 -8 -4 -4 -7 4 -12 2
-12 -3 0 -6 9 -11 21 -11 11 0 27 -6 35 -14 8 -8 35 -18 60 -22 41 -6 48 -4
74 21 16 15 33 24 38 21 17 -11 24 33 17 102 -11 103 -33 142 -51 90z m-641
-298 c-3 -11 -10 -20 -15 -20 -5 0 -25 -16 -44 -35 -18 -19 -38 -35 -44 -35
-5 0 -6 -7 -3 -17 4 -11 3 -14 -5 -9 -7 4 -12 2 -12 -4 0 -15 33 -26 38 -12 2
7 8 10 13 6 5 -3 9 0 9 6 0 6 4 9 9 5 6 -3 16 1 23 8 7 8 21 12 32 9 13 -3 17
-1 12 6 -6 11 12 17 37 13 5 -1 22 7 38 16 26 15 31 16 39 3 13 -21 -8 -53
-30 -47 -13 3 -25 -3 -35 -19 -13 -20 -19 -22 -35 -14 -16 8 -18 8 -14 -4 4
-10 0 -13 -14 -9 -14 3 -21 -2 -25 -16 -3 -14 -10 -19 -20 -15 -10 3 -18 -2
-22 -17 -6 -16 -9 -18 -16 -8 -4 7 -11 10 -15 6 -9 -8 24 -82 43 -98 25 -21
13 -28 -22 -13 -19 8 -35 12 -35 10 0 -3 -12 1 -27 9 -15 8 -30 12 -35 9 -4
-3 -8 0 -8 5 0 6 -7 11 -15 11 -8 0 -15 5 -15 11 0 5 5 7 12 3 7 -4 8 -3 4 4
-4 7 -15 12 -24 12 -15 0 -15 2 -2 10 13 9 13 11 0 19 -8 6 -11 13 -7 17 4 4
-1 13 -11 20 -11 9 -13 13 -4 14 7 0 10 5 7 10 -4 6 -10 8 -14 5 -5 -2 -15 1
-24 8 -11 9 -13 18 -6 35 4 12 13 22 19 22 14 0 13 -13 -2 -28 -7 -7 -9 -12
-4 -12 19 0 34 27 24 45 -8 14 -8 16 3 10 8 -4 22 -15 32 -23 15 -14 17 -13
17 2 0 13 6 15 25 10 18 -4 25 -2 25 8 0 16 37 41 50 33 6 -4 10 1 10 9 0 9 5
16 11 16 5 0 7 -4 4 -10 -11 -18 6 -11 37 15 36 30 38 30 31 5z m103 -180 c5
0 12 -13 15 -29 4 -17 4 -29 0 -27 -3 3 -7 -21 -8 -52 -1 -32 -3 -68 -6 -82
-2 -14 -5 -29 -6 -33 0 -5 -8 -2 -16 7 -9 8 -23 12 -31 9 -21 -8 -77 54 -69
75 3 9 3 13 -1 9 -11 -11 -31 24 -39 67 -7 36 -7 38 13 27 17 -9 22 -8 27 9 5
15 12 19 26 15 11 -4 19 -2 19 5 0 8 9 10 25 6 17 -4 25 -2 25 6 0 10 2 10 9
0 4 -8 12 -13 17 -12z m586 -118 c-12 -4 -3 -42 10 -42 6 0 8 -7 5 -15 -4 -8
-2 -17 3 -20 6 -4 10 -14 10 -23 0 -9 7 -30 15 -46 8 -15 15 -35 15 -42 0 -8
7 -17 16 -21 11 -4 12 -8 4 -13 -7 -5 -8 -19 -1 -48 6 -30 6 -42 -3 -42 -6 -1
3 -12 19 -25 17 -14 24 -25 17 -25 -8 0 -10 -8 -6 -25 4 -18 1 -27 -10 -31 -9
-3 -16 -12 -16 -20 0 -8 -7 -14 -15 -14 -8 0 -15 3 -15 8 0 4 -14 15 -31 24
-17 10 -27 22 -24 28 4 6 8 24 10 40 2 16 9 47 16 70 9 31 10 43 1 52 -9 9
-12 3 -12 -26 0 -71 -44 -132 -76 -105 -18 15 -18 25 4 47 39 42 62 83 62 115
0 18 5 38 11 44 8 8 7 20 -4 44 -9 19 -19 59 -23 89 -6 51 -5 54 11 40 9 -8
13 -16 7 -18z m-517 -485 c11 -3 24 -6 29 -6 5 -1 7 -4 3 -7 -9 -10 15 -29 71
-58 45 -23 99 -74 105 -100 3 -11 -91 -46 -125 -46 -16 0 -28 5 -28 10 0 13
-37 13 -45 0 -3 -5 -13 -6 -21 -3 -13 5 -13 7 -2 14 10 7 10 9 1 9 -7 0 -13 6
-13 14 0 8 -8 17 -17 19 -10 3 6 3 35 1 28 -2 52 0 52 4 0 4 -30 17 -66 30
-36 13 -92 36 -124 51 -33 16 -61 27 -65 25 -3 -2 0 3 7 10 11 13 25 11 97
-10 79 -23 114 -25 81 -4 -76 47 -64 69 25 47z m1099 -126 c35 -69 40 -91 22
-91 -8 0 -35 -15 -59 -34 -44 -33 -45 -34 -51 -13 -3 12 -1 26 4 31 19 19 10
29 -10 11 -19 -18 -20 -17 -20 2 0 15 -9 23 -32 28 -33 8 -33 8 -6 12 24 4 27
8 22 39 -3 27 0 36 14 40 9 3 24 9 32 13 37 20 61 9 84 -38z m221 -86 c0 -11
4 -26 8 -33 10 -14 -29 -51 -54 -52 -27 0 -29 -12 -9 -40 28 -39 25 -50 -11
-50 -22 0 -32 5 -36 19 -6 25 -33 16 -33 -10 0 -10 -7 -19 -15 -19 -8 0 -15
-7 -15 -16 0 -8 -9 -36 -21 -61 -25 -54 -23 -141 4 -171 31 -34 237 -79 237
-52 0 5 -11 10 -25 10 -16 0 -25 6 -25 16 0 14 3 14 15 4 8 -7 15 -9 15 -5 0
5 9 0 20 -10 12 -11 20 -29 18 -41 -1 -11 3 -29 11 -38 11 -14 11 -16 -2 -16
-9 0 -22 9 -30 20 -12 18 -18 19 -42 10 -19 -7 -38 -7 -59 -1 -29 9 -79 14
-118 12 -10 -1 -26 -11 -38 -23 -16 -18 -20 -19 -20 -6 0 9 9 20 20 23 20 6
20 7 -5 37 -14 16 -25 35 -25 41 0 7 10 -3 21 -20 13 -21 29 -33 43 -33 20 0
18 5 -21 45 -39 41 -43 50 -43 94 0 77 28 149 82 206 15 17 28 33 28 37 0 4
19 20 43 35 31 20 38 28 25 31 -22 4 -23 18 -2 26 26 10 36 7 30 -9 -3 -9 0
-15 10 -15 12 0 12 4 4 20 -6 11 -15 20 -20 20 -27 0 -257 -113 -287 -142
l-25 -23 13 30 c19 45 35 60 110 106 88 53 134 69 184 66 33 -2 40 -6 40 -22z
m-381 -84 c19 -20 26 -36 22 -47 -5 -14 -4 -15 9 -4 24 20 18 8 -30 -66 -25
-37 -45 -73 -45 -79 0 -5 -4 -3 -10 5 -7 12 -10 11 -16 -5 -4 -11 -20 -40 -36
-64 -35 -56 -36 -98 -4 -179 30 -75 52 -109 59 -90 3 7 3 -2 0 -21 -4 -24 -3
-32 5 -27 12 7 16 -5 13 -31 -1 -7 2 -13 6 -13 12 0 3 -77 -12 -106 -12 -23
-13 -22 -19 26 -4 28 -11 60 -17 73 -9 21 -9 21 -4 -3 3 -14 7 -61 9 -105 2
-44 2 -61 -1 -37 -2 23 -8 40 -12 37 -5 -2 -11 15 -13 40 -3 24 -22 78 -41
120 -30 62 -44 80 -84 105 -26 17 -64 35 -83 40 -38 11 -72 30 -53 30 6 0 44
-12 85 -26 40 -14 81 -26 90 -26 10 1 17 -2 17 -6 -3 -20 2 -33 11 -27 6 4 6
15 0 31 -6 14 -10 49 -10 77 0 59 24 116 88 216 23 35 42 69 41 75 0 6 -3 6
-6 -1 -5 -13 -60 -18 -87 -7 -9 3 -16 12 -16 20 0 15 55 9 78 -9 17 -13 15 -1
-5 29 -16 25 -16 26 3 23 10 -2 27 -19 36 -37 16 -33 17 -33 28 -12 16 29 -4
78 -33 82 -26 4 -35 28 -10 28 11 0 32 -13 47 -29z m619 -151 c8 -7 12 -41 16
-113 1 -10 4 -16 9 -14 8 5 7 68 -2 104 -6 30 26 50 44 28 21 -25 3 -123 -28
-154 -12 -12 -15 -12 -23 0 -5 8 -9 12 -10 9 0 -3 -2 -14 -4 -24 -2 -10 -9
-23 -16 -27 -18 -11 15 -151 41 -174 28 -26 80 -34 128 -20 23 7 42 10 42 7 0
-3 7 3 15 14 8 10 15 15 14 9 -3 -16 12 -45 24 -45 7 0 7 4 -1 12 -18 18 -14
33 4 17 27 -22 46 -20 38 4 -6 21 -6 21 12 6 11 -9 28 -15 38 -13 11 1 31 -6
44 -17 14 -10 19 -19 12 -19 -8 0 -21 6 -29 14 -14 13 -22 12 -64 -9 -26 -12
-51 -25 -54 -28 -9 -10 71 14 82 24 12 12 25 12 25 0 0 -9 -168 -67 -183 -63
-4 1 -6 -2 -5 -6 2 -4 -16 -26 -39 -48 -34 -33 -43 -37 -51 -24 -8 12 -19 6
-64 -37 -49 -45 -124 -90 -135 -79 -2 2 10 9 27 16 33 14 81 64 105 110 14 28
14 30 -2 30 -10 1 -29 7 -43 15 l-25 13 28 7 c16 4 39 3 54 -4 14 -6 34 -9 45
-5 16 5 19 3 13 -7 -6 -9 -2 -8 11 2 21 17 55 33 66 31 4 -1 5 5 1 14 -5 14
-3 15 15 5 16 -9 22 -9 22 0 0 6 -9 13 -20 16 -11 3 -20 9 -20 14 0 5 -8 9
-17 9 -15 0 -14 -2 3 -15 18 -14 17 -14 -13 -15 -17 0 -34 4 -38 9 -3 5 -19
12 -35 16 -16 4 -39 20 -51 36 -12 17 -24 28 -27 25 -3 -4 5 -17 18 -31 13
-14 20 -28 15 -32 -4 -5 -10 -2 -13 5 -2 8 -18 30 -35 49 -30 34 -30 34 -14
69 29 59 23 89 -35 196 -8 15 -18 25 -21 21 -4 -3 -7 2 -7 11 0 15 6 17 38 12
36 -6 37 -6 12 8 -38 23 -60 20 -60 -7 0 -20 -4 -22 -42 -20 -23 1 -45 -2 -48
-6 -3 -5 -16 -12 -29 -16 -18 -5 -22 -4 -16 6 5 8 -3 4 -17 -9 -14 -13 -28
-37 -32 -53 -3 -17 -10 -28 -16 -24 -6 4 -7 11 -3 18 4 6 7 22 8 35 1 36 43
66 111 81 32 7 61 17 64 20 18 25 120 33 143 11z m-533 -135 c7 -8 15 -35 17
-59 5 -42 4 -45 -26 -61 -18 -9 -49 -15 -69 -13 -29 2 -38 8 -46 29 -11 33 -1
74 24 99 24 24 82 27 100 5z m-5228 -267 c-16 -16 -15 -25 3 -25 8 0 12 4 9 9
-3 4 0 16 5 25 9 16 10 14 11 -9 0 -20 5 -28 18 -28 14 0 15 2 2 10 -13 8 -13
10 2 10 9 0 18 5 20 12 3 8 9 8 24 0 19 -11 19 -11 -1 -12 -16 0 -21 -7 -23
-32 -1 -18 -5 -41 -8 -50 -3 -12 0 -18 10 -18 23 0 20 -17 -4 -25 -11 -3 -25
-16 -31 -27 -9 -17 -13 -18 -20 -7 -6 9 -9 10 -9 2 0 -6 6 -18 13 -25 16 -17
20 -45 8 -52 -5 -4 -17 9 -27 29 -9 19 -22 35 -30 35 -10 0 -12 8 -8 28 6 27
4 29 -24 24 -26 -3 -34 1 -56 34 -41 61 -36 74 27 74 39 0 59 5 73 19 10 10
21 17 23 15 3 -3 -1 -10 -7 -16z m4828 -19 c19 -4 46 -21 59 -36 13 -15 20
-21 15 -13 -4 8 -3 12 1 7 5 -4 10 -17 11 -30 2 -12 6 -36 9 -52 6 -27 3 -32
-27 -46 -34 -17 -47 -17 -110 -5 -33 7 -37 12 -43 48 -4 22 -13 42 -21 45 -21
8 -17 22 5 16 27 -7 38 32 16 57 -19 21 -4 32 30 23 11 -4 36 -10 55 -14z
m-2079 -29 c24 0 38 4 34 10 -3 6 -3 10 0 10 13 0 63 -63 85 -107 14 -29 25
-41 30 -33 11 18 24 -8 22 -45 -2 -21 1 -26 7 -16 7 11 10 7 13 -15 3 -27 -1
-60 -18 -159 l-7 -40 -8 35 c-29 134 -52 225 -64 255 -17 39 -72 85 -103 85
-19 0 -112 -35 -112 -42 0 -2 19 -2 43 -1 47 3 41 -2 -14 -11 -20 -4 -59 -23
-85 -43 l-49 -36 45 49 c58 62 70 73 97 84 12 5 26 22 30 37 7 26 8 26 11 6 3
-19 10 -23 43 -23z m-2619 -33 c-5 -79 15 -100 101 -101 60 -1 67 -3 72 -24 7
-28 -31 -82 -57 -82 -31 0 -93 37 -128 76 -27 32 -31 42 -26 73 3 20 6 44 6
54 0 10 5 15 10 12 6 -4 10 5 10 19 0 14 3 26 8 26 4 0 6 -24 4 -53z m3768
-25 c41 -21 75 -45 75 -53 0 -8 6 -25 14 -38 7 -14 17 -47 21 -75 l8 -51 1 42
c0 23 4 50 8 60 6 15 9 13 15 -12 6 -23 6 -21 3 11 -4 32 0 45 15 59 11 10 23
15 27 12 3 -4 1 -7 -5 -7 -23 0 -23 -39 0 -71 l23 -31 5 27 c3 17 14 31 29 36
22 9 23 8 16 -28 -4 -21 -5 -36 -3 -33 2 3 12 16 23 29 11 14 14 21 8 17 -18
-10 -16 9 2 24 30 25 34 4 8 -45 -18 -34 -27 -68 -29 -108 -3 -61 -15 -86 -43
-88 -9 -1 -5 -4 9 -8 20 -6 31 -1 58 27 19 19 31 37 27 40 -4 4 -13 -1 -20
-12 -13 -17 -14 -17 -11 5 2 25 37 89 47 89 4 0 9 -13 11 -30 3 -16 1 -30 -4
-30 -4 0 -8 -9 -8 -20 0 -10 -13 -35 -30 -53 -34 -39 -40 -63 -12 -52 34 14
56 15 27 1 -16 -8 -38 -13 -47 -10 -10 3 -18 1 -18 -5 0 -5 -16 -18 -36 -27
-27 -13 -41 -15 -53 -7 -15 10 -18 7 -18 -18 0 -29 -27 -69 -47 -69 -6 0 -21
18 -34 40 -13 24 -32 42 -47 46 -14 3 -25 10 -25 15 0 13 13 11 38 -7 12 -8
22 -11 22 -5 0 5 -9 16 -21 25 -20 13 -20 15 -2 20 10 3 6 4 -9 2 -30 -3 -35
3 -16 22 22 22 65 13 112 -23 50 -38 82 -40 103 -6 10 16 9 18 -6 14 -10 -3
-42 5 -70 17 -39 17 -53 29 -57 49 -10 45 -11 47 -23 19 -6 -16 -13 -28 -16
-28 -4 0 -3 5 0 10 3 6 2 10 -4 10 -6 0 -15 -8 -20 -19 -6 -10 -18 -21 -26
-25 -13 -4 -11 1 5 24 12 17 25 30 29 30 4 0 20 17 34 37 l27 38 0 -44 c0 -32
6 -51 22 -68 27 -29 44 -30 24 -1 -9 12 -16 33 -16 45 0 13 -4 23 -9 23 -5 0
-12 21 -15 48 -8 51 -32 112 -45 112 -4 0 -3 -16 3 -35 6 -19 14 -35 18 -35 5
0 8 -10 8 -23 0 -31 -125 -162 -165 -172 -43 -12 -77 -13 -66 -2 6 6 4 15 -5
24 -8 8 -14 20 -14 26 0 7 5 4 11 -5 5 -10 20 -18 32 -18 17 0 19 -2 7 -10
-26 -16 -5 -19 28 -3 23 11 32 22 32 39 0 13 5 24 10 24 6 0 10 5 10 11 0 5
-5 7 -12 3 -7 -4 -8 -3 -4 5 4 6 11 9 16 6 5 -3 17 6 26 20 9 14 23 25 30 25
8 0 14 7 14 15 0 9 6 12 15 9 19 -8 19 -4 -1 59 -21 64 -52 99 -118 132 -39
19 -44 25 -25 25 13 0 58 -18 99 -38z m-4045 -72 c42 -26 69 -80 60 -123 -12
-55 -32 -77 -69 -77 -31 0 -34 3 -45 44 -20 82 -11 176 17 176 3 0 19 -9 37
-20z m942 -92 c4 -29 0 -46 -18 -73 -13 -19 -31 -35 -40 -35 -8 0 -37 14 -65
31 -76 49 -114 62 -179 60 -50 -1 -76 -9 -162 -52 -57 -28 -103 -53 -103 -55
0 -3 3 -4 8 -2 76 37 179 68 222 68 48 0 190 -44 178 -55 -2 -3 -28 4 -56 15
-64 24 -149 26 -223 4 -54 -16 -118 -49 -131 -68 -9 -13 -11 -10 -26 36 -16
46 -12 54 31 63 75 16 134 61 128 98 -3 19 29 4 34 -15 5 -21 12 -23 65 -23
53 -1 57 1 37 12 -12 7 -28 12 -35 13 -7 0 -21 8 -30 17 -16 16 -16 16 3 9 11
-4 52 -19 90 -33 39 -14 96 -41 128 -59 32 -19 64 -34 71 -34 7 0 23 11 36 25
19 20 22 32 18 72 -3 26 -8 57 -12 68 -3 11 1 4 10 -15 9 -19 19 -52 21 -72z
m2650 79 c10 -13 28 -29 41 -36 15 -8 21 -19 19 -34 -2 -12 -2 -16 0 -9 4 10
9 9 24 -4 18 -16 19 -16 13 -1 -3 9 -2 17 4 17 5 0 12 -7 16 -15 3 -8 1 -15
-5 -15 -6 0 -8 -9 -4 -21 6 -19 4 -21 -19 -17 -15 3 -29 1 -32 -3 -5 -8 25
-13 64 -12 6 1 12 -3 12 -9 0 -5 4 -7 9 -4 5 3 7 16 5 29 -2 12 -1 15 2 7 3
-8 14 -21 23 -28 11 -9 13 -15 4 -20 -6 -4 -17 -21 -23 -37 l-10 -30 20 25
c11 14 20 20 20 13 0 -6 9 -14 20 -18 15 -5 18 -12 14 -33 -3 -15 -6 -40 -7
-57 -2 -25 -10 -34 -47 -52 -59 -29 -79 -30 -55 -3 17 18 17 20 2 14 -18 -7
-23 6 -8 22 6 5 5 28 -2 58 -15 68 -75 131 -147 157 -51 19 -52 20 -15 15 21
-3 52 -14 66 -25 20 -15 29 -17 32 -8 2 6 -9 17 -25 24 -27 11 -42 37 -15 28
6 -3 17 6 24 20 10 22 9 25 -8 25 -10 0 -19 -4 -19 -10 0 -5 -5 -10 -11 -10
-5 0 -7 5 -4 10 3 6 2 10 -4 10 -5 0 -16 3 -24 6 -18 7 -29 -30 -13 -47 8 -9
7 -10 -9 -4 -11 4 -26 8 -32 8 -7 0 -13 7 -13 15 0 8 6 12 15 8 8 -3 15 -1 15
5 0 6 7 17 15 25 13 13 17 13 40 -2 30 -19 35 -2 8 28 -9 10 -11 18 -5 18 6 0
19 -11 29 -23z m-281 -121 c-60 -56 -79 -99 -21 -47 20 17 43 31 53 31 11 -1
7 -6 -13 -17 -16 -9 -37 -24 -46 -35 -9 -10 -23 -18 -30 -18 -11 0 -11 -2 1
-10 12 -8 11 -10 -5 -10 -16 0 -25 -14 -42 -67 -42 -128 -44 -142 -45 -245 0
-101 -10 -105 -23 -9 -6 47 -15 71 -26 71 -5 0 -9 5 -9 11 0 5 5 7 10 4 6 -4
10 6 10 22 0 15 9 62 20 103 14 55 27 82 47 100 16 14 41 43 55 65 15 22 37
46 48 53 11 7 20 20 20 30 0 11 9 17 26 19 25 1 22 -3 -30 -51z m259 -80 c19
5 28 -2 52 -37 24 -36 28 -53 28 -108 0 -43 -4 -66 -12 -66 -6 0 -15 -3 -19
-7 -18 -18 -74 -7 -105 20 -26 23 -31 35 -31 69 0 23 7 54 15 70 11 21 12 34
5 47 -9 15 -7 17 11 11 14 -4 21 -2 22 7 0 10 2 10 6 1 3 -8 14 -11 28 -7z
m-2910 -80 c6 -6 19 -12 29 -14 22 -4 46 -26 46 -41 0 -6 4 -11 10 -11 5 0 12
-15 15 -34 8 -42 -17 -96 -44 -96 -28 0 -52 -11 -45 -21 3 -5 -1 -6 -9 -3 -8
3 -21 -1 -28 -9 -8 -7 -21 -11 -29 -9 -17 6 -45 42 -45 59 0 6 -11 20 -23 31
-13 11 -19 23 -13 26 5 4 9 26 8 50 -2 37 -4 42 -16 33 -12 -10 -12 -9 -2 11
12 22 31 30 31 12 0 -5 4 -10 10 -10 5 0 7 7 4 15 -7 16 11 21 21 5 8 -13 35
-1 35 16 0 15 28 9 45 -10z m5715 -405 c0 -5 -7 -11 -15 -15 -11 -4 -14 -13
-9 -31 4 -15 2 -25 -5 -25 -6 0 -11 -7 -11 -15 0 -8 -6 -12 -14 -9 -11 4 -13
0 -9 -16 3 -12 -2 -28 -12 -40 -10 -12 -13 -20 -7 -20 7 0 12 -5 12 -11 0 -5
-4 -7 -10 -4 -5 3 -10 -1 -10 -10 0 -9 -6 -15 -12 -12 -7 2 -12 9 -11 15 2 7
-4 9 -14 5 -11 -4 -13 -8 -5 -11 7 -2 12 -10 12 -18 0 -7 -6 -11 -14 -8 -8 3
-30 -11 -51 -33 -21 -21 -42 -37 -48 -35 -5 2 -13 -2 -17 -8 -8 -14 -40 -2
-40 15 0 7 6 18 14 24 8 7 33 41 56 77 23 35 49 64 56 64 8 0 14 7 14 16 0 8
5 12 11 8 7 -4 9 0 5 13 -4 12 -1 25 9 33 8 7 12 17 8 23 -4 6 2 8 15 5 22 -6
72 11 72 25 0 4 7 7 15 7 8 0 15 -4 15 -9z m-5900 -31 c3 -1 10 -3 15 -4 6 -1
27 -7 49 -15 28 -10 63 -11 126 -7 50 4 90 3 94 -2 7 -12 -42 -47 -102 -74
-61 -27 -154 -28 -202 -3 -55 28 -91 58 -105 85 l-13 25 66 -1 c37 -1 69 -3
72 -4z m5651 -9 c-11 -7 -11 -15 -3 -41 10 -27 9 -31 -3 -26 -8 3 -15 1 -15
-4 0 -6 5 -10 12 -10 6 0 3 -8 -8 -19 -17 -16 -20 -16 -26 -2 -5 11 -7 8 -7
-11 -1 -16 -6 -28 -12 -28 -5 0 -7 -5 -4 -10 3 -6 -2 -13 -12 -17 -10 -4 -20
-10 -23 -15 -3 -4 -26 -18 -50 -32 -25 -13 -44 -29 -42 -35 1 -6 -3 -11 -9
-11 -7 0 -17 -8 -24 -17 -17 -23 -76 -27 -68 -5 4 10 2 13 -5 8 -10 -6 -62 37
-62 52 1 23 14 52 25 52 6 0 20 9 30 20 15 16 19 17 31 5 8 -7 14 -21 14 -30
0 -10 10 -4 31 19 16 19 50 47 75 63 24 15 47 36 50 47 4 11 9 14 13 8 4 -7
18 0 39 19 18 16 32 27 32 23 0 -5 5 -3 12 4 6 6 14 9 17 6 3 -3 -1 -9 -8 -13z
m-45 -214 c17 6 17 5 -3 -20 -12 -15 -29 -50 -39 -77 -10 -28 -21 -50 -25 -50
-4 0 -11 -9 -14 -20 -8 -25 -25 -26 -18 -1 3 10 0 22 -6 25 -7 4 -11 -1 -11
-13 0 -17 -6 -21 -35 -21 -37 0 -50 25 -19 37 8 3 13 12 10 19 -7 18 89 114
114 114 6 0 10 6 10 13 0 9 2 9 8 -1 5 -8 16 -10 28 -5z m-2931 -134 c-3 -21
-9 -48 -12 -60 -3 -14 -1 -23 6 -23 6 0 12 15 12 33 l1 32 7 -30 c5 -24 8 -26
13 -12 13 31 30 20 22 -15 l-7 -33 46 40 c39 34 45 44 42 70 l-4 30 14 -26
c14 -25 12 -28 -29 -71 -87 -91 -134 -192 -137 -295 -1 -33 -3 -31 -10 17 -13
82 -1 287 19 337 21 53 26 54 17 6z m3477 -202 c26 3 39 -1 33 -11 -3 -5 -17
-10 -31 -10 -14 0 -39 -7 -57 -15 -18 -8 -24 -10 -14 -3 52 36 53 37 35 38
-27 0 -113 -80 -142 -131 -14 -26 -26 -61 -26 -78 0 -37 23 -97 48 -124 28
-31 92 -59 118 -53 14 4 24 2 24 -4 0 -6 -6 -8 -12 -4 -7 4 11 -17 40 -46 29
-29 62 -71 73 -92 11 -22 23 -37 26 -34 12 12 -41 104 -89 152 -33 35 -46 54
-38 59 11 7 51 -24 91 -70 29 -33 70 -175 51 -175 -3 0 -17 10 -30 23 l-24 22
7 -25 c7 -21 5 -23 -6 -13 -8 6 -41 20 -74 31 -33 11 -59 25 -57 31 1 6 -3 11
-9 11 -5 0 -7 5 -4 10 3 6 1 10 -4 10 -6 0 -11 4 -11 9 0 5 11 4 25 -2 14 -7
25 -17 25 -22 0 -6 17 -17 38 -24 20 -8 44 -16 52 -19 8 -3 0 12 -18 35 -17
22 -32 45 -32 50 0 16 -31 40 -95 72 -81 41 -91 51 -115 102 -40 88 -20 164
67 256 35 38 93 64 110 51 6 -5 17 -8 25 -7z m78 -156 c0 -18 -5 -25 -19 -25
-11 0 -23 5 -26 10 -3 6 -1 10 4 10 6 0 11 5 11 11 0 8 -5 8 -15 -1 -35 -29
-10 -81 53 -114 33 -17 69 -62 101 -123 24 -48 36 -55 29 -20 -3 15 0 24 8 24
7 0 10 -6 7 -14 -3 -9 3 -13 21 -13 19 0 26 -5 26 -20 0 -13 5 -18 15 -14 8 4
15 1 15 -5 0 -6 -6 -11 -14 -11 -8 0 -28 -12 -45 -26 -36 -30 -41 -21 -9 13
23 24 13 31 -15 11 -11 -9 -19 -34 -23 -78 -3 -36 -11 -68 -17 -73 -7 -4 -1
-6 14 -3 14 2 32 0 40 -6 11 -8 10 -9 -3 -4 -10 3 -18 2 -18 -1 0 -12 33 -43
46 -43 15 0 54 -39 54 -54 0 -5 -13 3 -30 19 -16 16 -30 23 -30 17 0 -7 4 -12
8 -12 5 0 15 -11 22 -25 10 -19 16 -22 27 -13 18 15 7 44 -31 80 l-31 29 42
-27 c24 -14 41 -30 38 -34 -2 -4 2 -16 11 -26 14 -18 15 -18 4 4 -10 20 -8 22
12 21 13 -1 34 -4 48 -8 21 -6 22 -8 8 -14 -11 -4 -18 -16 -17 -29 1 -22 1
-22 8 2 7 25 7 25 13 3 3 -13 12 -23 18 -23 10 0 10 3 1 14 -8 10 -9 16 -1 21
5 3 10 4 10 1 0 -2 3 -11 6 -19 3 -10 -3 -20 -16 -27 -18 -10 -21 -10 -15 2 5
9 5 10 -2 3 -16 -15 -28 -59 -14 -51 15 9 14 4 -4 -30 l-15 -29 -2 30 c-1 17
-1 39 -1 51 1 17 -3 20 -23 16 -17 -3 -24 0 -24 12 0 9 -4 16 -9 16 -5 0 -7
-9 -4 -20 3 -11 9 -20 14 -20 5 0 9 -12 9 -26 0 -15 4 -23 11 -19 7 5 8 -4 4
-28 -5 -23 -3 -37 5 -42 9 -5 10 -1 6 16 -6 19 -5 21 4 7 10 -17 4 -48 -10
-48 -10 0 -40 87 -32 94 3 3 0 6 -6 6 -7 0 -12 9 -12 19 0 11 -4 22 -9 26 -6
3 -16 18 -24 33 -42 84 -73 122 -99 122 -25 0 -23 -36 2 -50 15 -8 20 -8 20 1
0 8 4 8 15 -1 14 -11 13 -14 -7 -25 -19 -10 -25 -9 -35 3 -7 9 -15 14 -17 11
-8 -8 66 -109 80 -109 7 0 18 -10 24 -22 11 -22 10 -22 -4 -4 -9 11 -18 17
-21 14 -4 -3 6 -15 21 -27 15 -11 23 -21 19 -21 -5 0 0 -9 10 -20 10 -11 14
-20 10 -20 -5 0 4 -14 21 -32 l29 -32 -35 26 c-19 14 -34 33 -34 42 1 9 -2 14
-6 11 -4 -3 -49 56 -99 130 -50 74 -88 135 -83 135 4 0 18 -16 31 -35 13 -19
27 -32 32 -29 5 3 3 15 -5 26 -11 16 -12 26 -5 40 7 14 7 23 -2 34 -9 11 -8
14 4 14 9 0 18 -8 20 -17 4 -14 5 -14 6 3 1 14 -7 24 -21 29 l-23 7 25 8 c14
4 19 8 12 9 -10 1 -10 5 2 17 21 21 20 40 -7 94 -16 34 -39 56 -89 89 -63 41
-68 47 -68 80 0 20 -3 46 -6 58 -7 25 26 63 56 63 15 0 20 -7 20 -25z m255
-21 c14 -6 13 -9 -7 -23 -13 -9 -27 -15 -32 -13 -16 5 3 -69 30 -116 25 -42
28 -44 35 -24 5 12 11 22 13 22 3 0 1 -12 -4 -26 -12 -31 8 -103 22 -81 6 9 8
9 8 0 0 -7 -12 -20 -27 -28 -24 -14 -24 -15 -6 -12 12 3 29 0 38 -7 12 -9 6
-10 -30 -8 -63 5 -104 -14 -123 -57 -15 -33 -16 -34 -20 -13 -5 32 29 67 85
88 48 19 50 22 27 67 -23 45 -44 67 -64 67 -13 0 -19 12 -24 49 -7 55 4 94 31
110 21 12 26 13 48 5z m-3347 -376 c7 -10 23 -18 35 -18 26 -1 122 -32 166
-54 17 -9 48 -31 68 -49 21 -17 31 -23 23 -13 -9 12 -10 17 -3 12 7 -4 18 -16
24 -28 9 -16 8 -19 -3 -12 -7 4 -6 -1 4 -12 26 -30 57 -142 61 -221 2 -40 0
-70 -5 -67 -4 3 -8 21 -8 40 0 19 -4 34 -9 34 -5 0 -12 17 -16 38 -8 48 -47
133 -80 176 -39 51 -122 103 -196 122 -84 21 -109 34 -109 54 0 35 22 34 48
-2z m3342 17 c6 3 26 1 45 -5 28 -9 35 -17 36 -38 0 -25 1 -25 10 -7 7 15 8 8
5 -27 -2 -31 0 -48 7 -48 6 0 4 -8 -6 -17 -16 -16 -20 -16 -72 11 -54 27 -77
46 -56 46 6 0 11 5 11 11 0 5 -4 7 -10 4 -5 -3 -12 6 -16 20 -3 14 -11 22 -17
18 -6 -3 -7 -1 -3 5 4 6 14 8 23 5 13 -5 15 -2 10 16 -4 18 -3 20 8 11 8 -7
19 -9 25 -5z m-312 -481 c35 -24 64 -92 70 -163 4 -56 7 -62 18 -46 8 10 11
28 9 39 -10 41 -14 98 -8 112 10 26 21 14 21 -23 -1 -72 4 -123 13 -129 5 -3
9 2 9 10 0 10 9 16 23 16 18 0 19 -2 7 -10 -12 -7 -8 -10 15 -10 23 0 27 -3
15 -10 -8 -5 -25 -10 -37 -10 -43 0 -75 -24 -94 -68 -38 -89 -20 -136 78 -198
58 -38 70 -59 23 -41 -16 6 -30 14 -30 18 0 4 -11 10 -24 13 -26 6 -124 142
-117 161 15 44 41 149 41 170 0 37 -29 116 -57 153 -26 35 -14 44 25 16z
m-1756 -294 c44 -43 48 -44 57 -25 6 11 12 34 15 50 2 17 3 9 3 -17 -2 -47 -1
-48 38 -64 37 -14 40 -14 52 2 12 16 13 16 13 1 0 -9 -4 -17 -9 -17 -18 0 -20
-45 -3 -70 9 -14 15 -28 14 -32 -1 -5 4 -7 11 -5 6 1 11 -6 9 -15 -2 -12 4
-18 15 -19 10 0 41 -11 68 -24 37 -17 44 -24 27 -24 -12 -1 -39 6 -59 14 -21
9 -51 13 -68 10 -18 -3 -23 -2 -13 3 15 6 12 13 -24 46 -27 26 -39 33 -35 20
7 -19 7 -19 -8 0 -17 23 -19 42 -5 51 18 11 11 25 -17 37 -16 7 -37 19 -48 29
-19 16 -65 32 -65 23 0 -9 34 -60 58 -86 13 -14 24 -30 24 -35 0 -4 3 -14 6
-21 10 -28 -10 -23 -62 16 -62 47 -101 94 -117 141 -10 27 -9 34 7 45 32 24
67 13 116 -34z m1702 -202 c-10 -61 -5 -119 12 -146 9 -13 14 -26 11 -28 -9
-9 -36 44 -40 77 -3 30 -4 29 -5 -10 -2 -40 2 -48 40 -83 23 -21 70 -54 105
-73 56 -31 145 -92 193 -133 24 -21 -29 6 -65 33 -16 12 -54 34 -83 49 -161
82 -241 157 -227 213 8 34 56 143 62 143 3 0 1 -19 -3 -42z m-1471 -352 c3 -8
14 -15 24 -15 89 -3 103 -7 103 -35 0 -20 4 -23 21 -19 15 4 17 8 8 14 -15 9
-14 11 24 27 35 15 90 17 67 2 -8 -5 -23 -7 -32 -4 -10 3 -18 1 -18 -5 0 -13
9 -14 74 -11 34 1 46 -1 41 -9 -4 -7 -15 -9 -26 -6 -10 4 -19 2 -19 -3 0 -5
-19 -12 -42 -16 -24 -4 -81 -21 -128 -37 -122 -44 -150 -50 -150 -33 0 8 -11
19 -25 24 -14 5 -25 17 -25 27 0 15 2 15 15 -3 13 -17 14 -17 15 -1 0 19 25
23 36 6 5 -8 10 -6 16 6 9 15 12 15 34 -6 13 -12 24 -21 25 -18 0 2 2 11 4 19
12 59 11 62 -24 74 -19 6 -36 17 -39 24 -5 17 15 15 21 -2z m362 -259 c-34
-19 1 -146 57 -204 31 -32 118 -76 176 -88 32 -7 34 -6 28 16 -6 21 -5 21 4 6
6 -9 8 -22 4 -29 -5 -7 -2 -9 8 -6 8 4 20 3 27 -2 8 -5 0 -10 -22 -14 -26 -5
-58 1 -114 20 l-79 26 -49 -31 c-51 -32 -111 -41 -133 -19 -9 9 9 18 74 39 48
15 93 25 102 22 10 -4 13 -2 8 5 -10 16 -32 15 -96 -8 -56 -20 -168 -28 -140
-10 12 7 10 11 -10 18 -35 14 -76 60 -64 72 6 6 29 -2 64 -25 63 -41 65 -41
107 -16 l32 20 -20 63 c-22 72 -24 120 -8 151 17 32 32 39 47 20 10 -14 9 -19
-3 -26z m-310 -412 c95 -72 252 -100 517 -91 101 3 207 8 236 11 33 4 52 2 52
-5 0 -5 12 -10 28 -10 22 -1 24 -2 10 -10 -9 -6 -85 -18 -169 -27 -130 -14
-174 -15 -303 -5 -147 11 -265 36 -330 69 -55 27 -96 63 -96 84 0 25 2 25 55
-16z m724 -311 c-12 -15 -11 -16 11 -9 14 4 29 11 33 15 4 4 19 5 32 2 28 -5
19 -17 -27 -41 -44 -23 -25 -25 21 -3 23 11 41 17 41 14 0 -4 19 -7 42 -8 69
-1 97 -7 103 -22 4 -11 -1 -13 -21 -8 -49 13 -158 6 -209 -12 -28 -9 -80 -36
-115 -58 -36 -22 -85 -48 -110 -58 -25 -10 -53 -25 -62 -33 -9 -8 -23 -13 -30
-10 -8 3 -2 9 15 17 15 7 27 17 27 21 0 5 20 18 45 29 25 11 44 25 42 31 -1 7
4 14 12 17 8 3 11 0 7 -7 -4 -6 -5 -11 -1 -11 9 0 57 31 83 54 12 11 22 16 22
11 0 -4 8 -1 18 7 9 9 35 25 57 36 46 24 32 29 -20 8 -19 -8 -35 -12 -35 -9 0
4 -15 -7 -32 -23 -49 -45 -86 -66 -91 -51 -2 7 -13 1 -29 -16 -14 -15 -30 -27
-37 -27 -6 0 -11 -5 -11 -11 0 -5 -4 -8 -9 -5 -5 3 -15 -2 -22 -11 -8 -9 -34
-29 -59 -45 -25 -16 -35 -26 -22 -23 12 4 22 2 22 -4 0 -5 -13 -8 -30 -6 -16
2 -30 0 -30 -4 0 -5 -8 -11 -17 -14 -10 -2 -27 -8 -38 -13 -19 -7 -19 -7 -3 9
9 9 22 17 28 17 6 0 8 6 4 13 -4 6 -4 9 0 5 5 -4 31 9 58 28 28 19 56 34 64
34 8 0 14 4 14 8 0 5 18 18 40 31 38 21 52 41 30 41 -5 0 -10 -4 -10 -9 0 -5
-12 -14 -27 -19 -16 -6 -43 -21 -61 -33 -24 -15 -33 -18 -31 -8 4 21 -12 88
-22 95 -11 7 -12 24 -1 24 12 0 32 -47 32 -75 0 -30 6 -31 48 -5 17 11 32 17
32 14 0 -2 10 4 22 16 15 14 24 16 29 9 4 -6 12 -8 18 -4 9 5 9 11 -1 23 -12
15 -11 16 5 3 9 -8 21 -10 25 -6 4 4 1 10 -6 12 -6 3 -9 9 -6 15 4 7 9 6 14
-2 4 -7 13 -9 20 -5 9 6 9 9 -1 16 -8 5 -9 9 -4 9 19 0 38 -18 31 -29 -4 -6
-11 -9 -15 -6 -5 2 -16 -4 -26 -15 -31 -34 3 -22 43 15 31 29 35 36 22 46 -13
9 -12 10 3 5 10 -3 28 1 40 9 28 19 33 19 16 -1z m51 -152 c0 -10 118 -49 175
-58 63 -9 75 -14 75 -31 0 -9 -6 -13 -14 -10 -8 3 -17 -1 -20 -9 -3 -9 -11
-12 -17 -9 -5 4 -19 -1 -30 -11 -10 -9 -22 -14 -25 -11 -4 4 1 9 10 13 9 3 16
16 16 28 0 19 -5 22 -27 21 -86 -6 -158 -19 -190 -35 -21 -10 -43 -16 -50 -13
-22 8 27 40 75 48 23 4 42 11 42 16 0 6 -4 8 -9 4 -5 -3 -12 -1 -16 5 -3 5
-17 10 -31 10 -13 0 -24 4 -24 9 0 5 -9 13 -20 16 -35 11 -22 21 30 23 28 1
50 -2 50 -6z m-44 -445 c71 -38 133 -91 121 -103 -3 -4 -20 5 -36 19 -17 14
-57 36 -88 49 -51 20 -74 23 -193 22 -119 0 -145 -4 -220 -28 -47 -16 -91 -33
-98 -39 -11 -8 -18 -5 -33 13 -10 14 -19 28 -19 31 0 10 67 34 145 52 107 25
112 25 235 23 112 -1 117 -2 186 -39z m-4126 -65 c93 -68 168 -143 172 -172 3
-17 0 -30 -5 -30 -5 0 -36 26 -70 58 -34 33 -88 78 -119 101 -77 55 -120 99
-113 112 7 10 70 -22 135 -69z m4046 14 c50 -7 107 -21 128 -31 37 -18 61 -48
51 -65 -3 -5 -1 -11 5 -15 5 -3 10 -11 10 -17 0 -6 -9 -3 -20 7 -11 10 -17 22
-13 28 3 5 1 7 -5 3 -6 -3 -13 -2 -17 4 -3 5 -24 14 -47 21 -23 6 -47 17 -55
25 -11 10 -38 14 -106 12 l-92 -2 75 -6 c70 -5 65 -6 -70 -12 -80 -4 -164 -10
-187 -13 -43 -7 -56 -21 -29 -31 15 -6 71 -122 63 -130 -3 -3 -21 22 -42 56
-20 33 -48 74 -61 90 l-25 29 53 15 c167 47 241 54 384 32z m-239 -88 c-15 -5
-30 -20 -33 -33 -7 -28 23 -95 42 -95 8 0 14 -10 14 -22 0 -25 52 -142 68
-152 5 -3 12 3 15 14 3 11 1 18 -4 14 -10 -6 -12 15 -9 82 1 23 -3 45 -9 49
-6 3 -11 13 -11 22 0 14 3 13 21 -3 15 -13 36 -19 69 -19 40 0 45 -2 31 -13
-9 -8 -11 -11 -6 -9 6 3 36 10 68 17 l57 11 0 43 c0 39 -13 66 -32 66 -4 0 -5
-7 -2 -15 4 -8 10 -12 15 -9 10 6 11 -11 3 -43 -4 -14 -14 -23 -25 -23 -15 0
-19 7 -19 34 0 19 -3 41 -6 50 -4 11 0 16 13 16 29 0 80 -28 88 -47 5 -15 7
-15 15 -3 7 10 10 11 10 3 0 -7 9 -22 21 -34 19 -19 20 -23 6 -36 -11 -11 -13
-22 -7 -38 9 -24 -7 -61 -17 -37 -2 6 -11 12 -19 12 -8 0 -17 7 -20 15 -9 22
-67 19 -94 -5 -27 -23 -38 -26 -21 -6 10 12 8 13 -11 8 -30 -9 -68 -34 -68
-46 0 -4 12 -1 26 9 14 9 27 15 29 13 2 -2 6 -21 10 -43 l8 -40 -25 23 c-32
29 -48 28 -48 -4 0 -19 7 -28 30 -35 19 -7 30 -18 30 -30 0 -22 -42 -49 -48
-30 -2 6 -12 11 -21 11 -18 0 -82 76 -132 155 -28 45 -79 157 -79 174 0 6 -5
11 -12 11 -24 0 1 11 43 19 60 12 80 12 46 -1z m1412 -1454 c22 -55 41 -108
41 -117 0 -8 9 -18 19 -22 21 -6 47 -33 39 -40 -2 -3 -22 4 -43 15 -22 11 -52
20 -67 20 -15 0 -30 5 -33 10 -3 6 -16 10 -28 9 -21 0 -21 -1 -2 -10 15 -7 11
-8 -18 -5 -35 4 -135 -7 -182 -21 -35 -9 -3 15 40 32 l40 15 -37 -3 c-43 -3
-42 8 2 16 30 7 40 29 18 43 -8 5 -9 2 -5 -9 3 -10 2 -17 -3 -17 -6 0 -10 11
-10 24 0 14 -12 38 -26 53 l-26 28 22 -37 c28 -49 13 -49 -18 -2 -18 27 -21
39 -12 44 7 4 9 13 6 19 -4 6 -2 11 4 11 6 0 20 -16 31 -35 12 -19 27 -35 34
-35 6 0 24 -11 40 -26 34 -31 42 -26 20 15 -21 42 -12 39 14 -5 12 -19 26 -32
31 -29 6 4 9 1 8 -6 -2 -7 22 -20 57 -30 63 -20 88 -24 69 -11 -12 7 -74 178
-74 202 0 21 6 10 49 -96z m-11 -483 c3 -10 -2 -11 -19 -6 -53 15 10 -16 122
-61 64 -25 132 -59 150 -75 l34 -30 -41 25 c-23 14 -97 44 -165 67 -117 40
-127 41 -176 31 -28 -6 -86 -27 -130 -47 -69 -32 -75 -33 -53 -12 14 14 27 23
30 21 3 -1 37 12 75 30 39 18 77 36 85 39 8 4 2 5 -15 1 -16 -3 -52 -16 -79
-30 -26 -14 -50 -23 -52 -21 -3 2 33 23 78 45 85 43 147 52 156 23z m-74 -393
c7 -7 15 -21 18 -30 4 -10 16 -15 32 -14 14 2 24 -2 23 -8 -1 -6 3 -10 8 -9 6
1 12 -10 13 -25 1 -15 10 -33 19 -40 13 -9 15 -15 6 -20 -9 -6 -9 -25 -2 -80
13 -93 9 -147 -11 -147 -8 0 -21 -4 -27 -8 -9 -5 -13 -2 -13 8 0 9 -4 13 -10
10 -5 -3 -10 -3 -10 2 0 35 -35 164 -52 191 -25 40 -29 36 -58 -60 -12 -38
-25 -68 -30 -68 -6 0 -10 -7 -10 -16 0 -33 -20 -1 -21 34 l-1 37 -13 -30 c-11
-25 -13 -27 -18 -10 -4 17 -5 16 -6 -4 -1 -33 -13 -19 -17 21 -3 24 -1 29 6
18 8 -13 10 -13 10 2 0 9 -5 18 -12 20 -8 3 -6 11 5 29 9 13 17 42 18 64 2 35
32 115 43 115 19 0 34 -14 29 -27 -5 -12 -1 -14 18 -8 13 5 32 8 42 9 9 1 16
6 15 11 -2 6 -5 9 -8 9 -3 -1 -16 -5 -29 -9 -15 -5 -21 -3 -17 3 3 6 1 12 -6
14 -6 2 -8 10 -4 16 9 16 54 15 70 0z m-236 -45 c29 -7 28 -17 -5 -30 -27 -11
-27 -11 -6 -18 14 -4 23 -18 27 -38 8 -44 0 -156 -13 -191 -10 -25 -15 -28
-41 -23 -18 4 -30 2 -34 -6 -2 -7 -5 11 -5 38 -2 84 -12 125 -31 125 -22 0
-57 -38 -65 -72 -4 -16 -11 -25 -16 -23 -5 3 -11 -6 -15 -20 -9 -36 -21 -31
-17 8 l3 32 -12 -30 c-6 -16 -14 -32 -18 -35 -3 -3 -10 -14 -14 -25 -14 -35
-18 1 -7 61 6 32 20 77 32 101 11 23 17 48 13 54 -5 8 -3 9 6 4 10 -6 12 -4 7
8 -4 11 -2 14 8 11 7 -3 23 4 34 15 12 12 33 21 49 22 46 1 93 7 98 12 3 3
-11 11 -30 18 -45 16 -48 31 -3 17 17 -5 42 -12 55 -15z"/>
<path d="M6781 8945 c-8 -42 -19 -75 -25 -75 -14 0 -46 -36 -46 -51 0 -8 5 -7
15 1 12 10 15 10 15 0 0 -27 -43 -80 -85 -104 -24 -14 -47 -35 -50 -46 -14
-45 31 -115 100 -156 17 -9 17 -14 6 -40 -9 -23 -9 -42 -1 -78 9 -40 8 -53 -5
-75 -16 -25 -15 -25 8 2 25 30 34 105 16 138 -4 9 -6 19 -3 22 10 10 35 -5 44
-27 8 -18 9 -17 9 12 1 29 4 32 31 32 20 0 30 5 30 15 0 11 -8 13 -30 9 -20
-5 -30 -3 -30 6 0 7 7 10 18 6 14 -5 14 -4 -2 9 -14 11 -23 12 -32 4 -7 -6
-21 -9 -31 -6 -14 3 -12 6 10 11 15 5 27 12 27 16 0 5 6 15 13 22 36 37 57 81
66 139 11 64 14 225 4 202 -8 -20 -23 -15 -23 7 0 18 -26 80 -33 80 -2 0 -9
-34 -16 -75z"/>
<path d="M3075 8380 c-17 -31 -20 -55 -20 -195 0 -164 11 -225 41 -225 8 0 16
-11 20 -25 7 -29 19 -32 30 -7 10 23 6 43 -14 67 -16 19 -16 19 2 5 18 -13 19
-13 14 1 -4 10 -1 16 8 16 8 0 14 -7 15 -16 0 -9 7 1 15 23 7 21 11 42 8 47
-3 5 0 8 7 7 6 -2 14 3 16 10 3 7 0 11 -7 10 -6 -2 -17 15 -25 36 -7 21 -19
42 -25 46 -26 16 -53 88 -59 160 l-7 75 -19 -35z"/>
<path d="M9306 7054 c-28 -7 -54 -10 -59 -7 -6 3 -7 1 -4 -4 4 -6 -4 -18 -18
-27 -14 -9 -25 -23 -25 -31 0 -8 -4 -15 -9 -15 -5 0 -11 -9 -14 -20 -3 -11 -1
-20 5 -20 5 0 7 -4 3 -10 -3 -5 7 -3 22 5 38 20 60 20 43 0 -16 -19 1 -20 33
-3 20 10 21 10 7 -7 -14 -17 -13 -17 10 -10 25 8 25 7 6 -13 -10 -12 -24 -19
-30 -15 -8 4 -8 3 0 -6 8 -8 18 -9 37 -2 18 7 27 7 27 0 0 -5 6 -9 13 -8 31 4
40 -1 28 -15 -10 -12 -8 -13 11 -9 23 5 23 5 3 -11 -20 -17 -20 -17 3 -13 12
3 20 1 16 -4 -3 -5 0 -9 6 -9 7 0 10 -7 6 -15 -4 -12 0 -14 21 -9 18 5 24 4
19 -5 -4 -6 -2 -11 4 -11 6 0 9 -4 5 -9 -3 -6 3 -14 12 -20 10 -6 12 -11 6
-11 -21 0 -15 -17 8 -23 17 -5 20 -11 17 -31 -3 -16 -1 -23 5 -19 6 4 8 0 4
-10 -7 -19 9 -23 17 -4 2 6 4 3 4 -8 -2 -31 22 -85 39 -85 8 0 11 5 7 12 -4 6
-3 8 4 4 6 -3 21 -2 34 3 41 16 63 24 71 25 4 1 11 6 15 12 4 6 16 14 26 17
10 4 16 10 13 13 -3 3 1 17 9 32 9 19 10 30 2 39 -8 10 -6 13 8 13 14 0 15 3
6 8 -13 9 -6 42 9 42 18 0 9 18 -12 23 -12 3 -18 10 -15 15 3 5 -9 17 -27 26
-17 8 -27 16 -20 16 7 0 11 17 11 43 -1 36 -5 43 -21 44 -32 3 -46 23 -16 23
16 0 26 6 26 15 0 8 -9 15 -19 15 -11 0 -16 5 -13 11 13 19 -28 39 -70 34 -22
-3 -34 -2 -27 1 21 10 13 24 -15 25 -25 0 -26 1 -8 9 28 12 2 12 -30 0 -15 -6
-24 -6 -20 -1 8 14 -151 10 -209 -5z"/>
<path d="M7447 2027 c-24 -98 -21 -117 35 -227 30 -58 60 -118 66 -135 10 -30
10 -29 11 15 1 25 6 65 12 89 9 39 7 49 -19 100 -16 31 -37 80 -46 109 -20 60
-51 86 -59 49z"/>
</g>
</svg>
